<svg width="14" height="14" viewBox="0 0 14 14" fill="none" xmlns="http://www.w3.org/2000/svg">
<path d="M6.38438 0C6.49603 0.0239248 6.61167 0.0438621 6.72332 0.0717744C7.99931 0.394759 8.82073 1.18827 9.1158 2.46824C9.36302 3.53688 9.06795 4.48989 8.32229 5.29934C8.31033 5.31131 8.29438 5.31928 8.27843 5.33523C8.18672 5.23953 8.09501 5.14782 8.0033 5.05212C9.25935 3.74024 8.86858 1.86215 7.75607 1.00883C6.55983 0.0917117 4.92896 0.279123 3.97197 1.3996C3.11466 2.40046 2.99105 4.49388 4.74952 5.52663C4.68572 5.63828 4.62192 5.75392 4.55414 5.87753C4.17931 5.67417 3.8643 5.40701 3.60911 5.08003C3.20637 4.55768 2.9751 3.96354 2.93522 3.29764C2.83952 1.7505 3.99589 0.29906 5.52708 0.0518371C5.58689 0.0438621 5.6467 0.0199373 5.70253 0.00398747C5.92981 0 6.1571 0 6.38438 0Z" fill="#675ED5"/>
<path d="M5.31995 7.42068C5.31995 6.01709 5.31995 4.60951 5.31995 3.20592C5.31995 2.81116 5.51135 2.544 5.86224 2.43235C6.30485 2.29279 6.78734 2.63571 6.79133 3.09826C6.79531 4.13102 6.79531 5.16377 6.79531 6.19652C6.79531 6.24039 6.79531 6.28425 6.80329 6.33608C6.96677 5.92538 7.25786 5.726 7.69249 5.79379C7.91579 5.82968 8.10719 5.96525 8.18295 6.18456C8.25074 6.37995 8.2627 6.59527 8.29859 6.79863C8.48201 6.40387 8.78905 6.19254 9.24362 6.3321C9.65433 6.45571 9.76199 6.79066 9.76996 7.18542C9.86168 6.96212 10.0052 6.80661 10.2445 6.73882C10.5794 6.64711 10.9702 6.89034 11.018 7.23725C11.034 7.35688 11.042 7.48049 11.042 7.6041C11.042 8.72857 11.038 9.84904 11.046 10.9735C11.0499 11.6155 10.9861 12.2455 10.8187 12.8715C10.7349 13.1746 10.7309 13.4976 10.6951 13.8126C10.6911 13.8604 10.6911 13.9123 10.6871 13.9681C9.04424 13.9681 7.40938 13.9681 5.75458 13.9681C5.75458 13.7368 5.7506 13.5095 5.75458 13.2823C5.76256 12.9872 5.63895 12.7798 5.37976 12.6403C5.06874 12.4728 4.7617 12.2934 4.58227 11.9784C4.42676 11.7072 4.29517 11.4201 4.1596 11.137C3.99611 10.7981 3.84459 10.4512 3.6811 10.1122C3.46976 9.66562 3.51363 9.35859 3.8406 8.99174C3.95624 8.86015 4.08383 8.72458 4.15561 8.56907C4.2234 8.41754 4.2553 8.23412 4.24333 8.07063C4.20346 7.58815 4.60619 7.28909 4.98899 7.3489C4.98899 8.03475 4.98899 8.72059 4.98899 9.40643C4.98899 9.59385 5.09665 9.70549 5.31596 9.73739C5.31995 8.95984 5.31995 8.19026 5.31995 7.42068Z" fill="#675ED5"/>
<path d="M7.65221 4.41814C7.54455 4.33042 7.44088 4.24668 7.34119 4.16693C7.99115 3.26975 7.65221 2.33269 7.12188 1.8861C6.53173 1.38766 5.66645 1.36773 5.0484 1.85819C4.68952 2.1413 4.48616 2.52011 4.4423 2.97468C4.40243 3.42526 4.53401 3.82401 4.81314 4.18288C4.70547 4.27459 4.60579 4.35833 4.5061 4.44207C3.89602 3.77217 3.78038 2.55201 4.59781 1.69869C5.35543 0.905181 6.64338 0.873281 7.45284 1.62293C8.29818 2.40447 8.2942 3.6685 7.65221 4.41814Z" fill="#675ED5"/>
<path d="M5.31135 7.41268C5.31135 8.18226 5.31135 8.95184 5.31135 9.72541C5.09204 9.69351 4.98438 9.57787 4.98438 9.39445C4.98438 8.7086 4.98438 8.02276 4.98438 7.33691C5.09602 7.36084 5.20369 7.38875 5.31135 7.41268Z" fill="#675ED5"/>
</svg>
