<svg xmlns="http://www.w3.org/2000/svg" xmlns:xlink="http://www.w3.org/1999/xlink" width="1065" height="1330" viewBox="0 0 1065 1330" fill="none"><g clip-path="url(#clip0_209_2213)"><mask id="mask0_209_2213" style="mask-type:luminance" maskUnits="userSpaceOnUse" x="0" y="-70" width="1065" height="2143"><path d="M0.207031 -69.8086H1064.21V2072.19H0.207031V-69.8086Z" fill="white"></path></mask><g mask="url(#mask0_209_2213)"><path fill-rule="evenodd" clip-rule="evenodd" d="M56 926.209L891.019 925.66V1280.63H56V926.209Z" fill="#0B2239" fill-opacity="0.95"></path><path fill-rule="evenodd" clip-rule="evenodd" d="M56 924.682L176.037 799.062H1011.06L891.128 924.682H56Z" fill="#3B4E60" fill-opacity="0.95"></path><path d="M56.2744 926.444L176.035 800.357H1011.05M56.2744 926.444L56 1280.63H891.019M56.2744 926.444L891.019 924.743M1011.05 800.357V1160.56L891.019 1280.63M1011.05 800.357L891.019 924.743M891.019 1280.63V924.743" stroke="black" stroke-miterlimit="10" stroke-linejoin="round"></path><mask id="mask1_209_2213" style="mask-type:luminance" maskUnits="userSpaceOnUse" x="370" y="1182" width="215" height="52"><path fill-rule="evenodd" clip-rule="evenodd" d="M370.48 1182.13H584.384V1233.12H370.48V1182.13Z" fill="white"></path></mask><g mask="url(#mask1_209_2213)"><rect x="370.48" y="1182.13" width="213.903" height="50.983" fill="url(#pattern0_209_2213)"></rect></g><mask id="mask2_209_2213" style="mask-type:luminance" maskUnits="userSpaceOnUse" x="687" y="1148" width="133" height="89"><path fill-rule="evenodd" clip-rule="evenodd" d="M687.08 1148.69H819.167V1236.05H687.08V1148.69Z" fill="white"></path></mask><g mask="url(#mask2_209_2213)"><rect x="687.08" y="1148.69" width="132.087" height="87.3592" fill="url(#pattern1_209_2213)"></rect></g><mask id="mask3_209_2213" style="mask-type:luminance" maskUnits="userSpaceOnUse" x="124" y="1149" width="143" height="95"><path fill-rule="evenodd" clip-rule="evenodd" d="M124.662 1149.8H266.561V1243.44H124.662V1149.8Z" fill="white"></path></mask><g mask="url(#mask3_209_2213)"><rect x="124.662" y="1149.8" width="141.899" height="93.6308" fill="url(#pattern2_209_2213)"></rect></g><path fill-rule="evenodd" clip-rule="evenodd" d="M891.018 923.854L1010.61 799.479L1011.05 1160.37L891.018 1280.44L891.018 923.854Z" fill="#081B2D" fill-opacity="0.95"></path><path d="M181.862 425.094L181.01 800.678" stroke="black" stroke-miterlimit="10" stroke-linejoin="round"></path><path fill-rule="evenodd" clip-rule="evenodd" d="M56.2422 549.725H470.608V926.723H56.2422V549.725Z" fill="#CFE2F3" fill-opacity="0.5"></path><path fill-rule="evenodd" clip-rule="evenodd" d="M470.607 549.725L596.197 424.059V801.057L470.607 926.723V549.725Z" fill="#A5B4C2" fill-opacity="0.5"></path><path fill-rule="evenodd" clip-rule="evenodd" d="M56.2422 549.725L181.831 424.059H596.198L470.608 549.725H56.2422Z" fill="#D8E7F5" fill-opacity="0.5"></path><path d="M56.2422 549.725L181.831 424.059H596.198M56.2422 549.725V926.723H470.608M56.2422 549.725H470.608M596.198 424.059V801.057L470.608 926.723M596.198 424.059L470.608 549.725M470.608 926.723V549.725" stroke="black" stroke-miterlimit="10" stroke-linejoin="round"></path><path fill-rule="evenodd" clip-rule="evenodd" d="M56.2422 549.725H470.608V926.723H56.2422V549.725Z" fill="#CFE2F3" fill-opacity="0.5"></path><path fill-rule="evenodd" clip-rule="evenodd" d="M470.607 549.725L596.197 424.059V801.057L470.607 926.723V549.725Z" fill="#A5B4C2" fill-opacity="0.5"></path><path fill-rule="evenodd" clip-rule="evenodd" d="M56.2422 549.725L181.831 424.059H596.198L470.608 549.725H56.2422Z" fill="#D8E7F5" fill-opacity="0.5"></path><path d="M56.2422 549.725L181.831 424.059H596.198M56.2422 549.725V926.723H470.608M56.2422 549.725H470.608M596.198 424.059V801.057L470.608 926.723M596.198 424.059L470.608 549.725M470.608 926.723V549.725" stroke="black" stroke-miterlimit="10" stroke-linejoin="round"></path><mask id="mask4_209_2213" style="mask-type:luminance" maskUnits="userSpaceOnUse" x="116" y="611" width="109" height="105"><path fill-rule="evenodd" clip-rule="evenodd" d="M116.436 611.656H224.436V715.997H116.436V611.656Z" fill="white"></path></mask><g mask="url(#mask4_209_2213)"><rect x="116.436" y="611.656" width="108.001" height="104.34" fill="url(#pattern3_209_2213)"></rect></g><path d="M294.486 656.685V646.168C294.486 644.045 294.326 642.008 294.005 640.058C293.709 638.083 293.252 636.231 292.636 634.503C291.797 632.059 290.649 629.862 289.194 627.911C287.763 625.936 286.097 624.258 284.198 622.875C282.495 621.715 280.595 620.814 278.498 620.172C276.426 619.53 274.205 619.209 271.837 619.209C269.444 619.209 267.235 619.53 265.212 620.172C263.189 620.814 261.351 621.715 259.698 622.875C257.897 624.159 256.342 625.714 255.035 627.541C253.727 629.368 252.691 631.405 251.926 633.651C251.26 635.453 250.754 637.416 250.409 639.539C250.063 641.662 249.891 643.872 249.891 646.168V656.685C249.891 658.684 250.063 660.635 250.409 662.536C250.779 664.436 251.309 666.239 252 667.942C252.79 669.868 253.814 671.682 255.072 673.386C256.33 675.089 257.81 676.546 259.513 677.755C261.166 678.94 263.016 679.879 265.064 680.57C267.137 681.236 269.394 681.57 271.837 681.57C272.898 681.57 273.934 681.496 274.945 681.347C275.982 681.199 276.981 681.002 277.943 680.755L289.49 691.42L297.003 684.717L286.973 675.645C288.059 674.608 289.021 673.472 289.86 672.238C290.723 671.003 291.451 669.707 292.043 668.349C292.833 666.597 293.425 664.733 293.82 662.758C294.215 660.783 294.437 658.758 294.486 656.685ZM282.606 646.094V656.685C282.606 657.796 282.532 658.906 282.384 660.017C282.261 661.104 282.051 662.153 281.755 663.165C281.385 664.523 280.855 665.807 280.164 667.016C279.498 668.201 278.671 669.201 277.684 670.016C276.919 670.584 276.043 671.053 275.056 671.423C274.094 671.769 273.021 671.941 271.837 671.941C270.652 671.941 269.592 671.781 268.654 671.46C267.741 671.114 266.939 670.633 266.248 670.016C265.262 669.201 264.447 668.189 263.806 666.979C263.189 665.745 262.708 664.375 262.363 662.869C262.14 661.906 261.98 660.906 261.881 659.869C261.783 658.808 261.733 657.746 261.733 656.685V646.094C261.733 644.835 261.77 643.637 261.844 642.502C261.943 641.341 262.079 640.243 262.252 639.206C262.523 637.428 262.967 635.836 263.584 634.429C264.225 632.997 265.064 631.812 266.1 630.874C266.841 630.257 267.679 629.788 268.617 629.467C269.555 629.121 270.628 628.948 271.837 628.948C273.07 628.948 274.193 629.133 275.205 629.504C276.216 629.849 277.117 630.343 277.906 630.985C278.696 631.726 279.411 632.639 280.053 633.725C280.694 634.787 281.188 635.972 281.533 637.28C281.903 638.515 282.174 639.885 282.347 641.391C282.52 642.897 282.606 644.464 282.606 646.094ZM321.044 655.796L336.033 680.718H349.911L328.779 646.871L349.171 620.061H334.849L320.119 640.428L314.605 647.834V620.061H302.873V680.718H314.605V662.832L321.044 655.796ZM391.421 654.129V644.872H366.551V629.615H395.529V620.061H354.782V680.718H395.64V671.275H366.551V654.129H391.421Z" fill="black"></path><path d="M251.557 713.368L254.888 718.923H257.997L253.297 711.406L257.812 705.444H254.629L251.372 709.962L250.151 711.628V705.444H247.523V718.923H250.151V714.961L251.557 713.368ZM265.556 718.923H267.887V708.888H265.297V715.924C265.223 716.096 265.124 716.245 265.001 716.368C264.902 716.491 264.779 716.602 264.631 716.701C264.458 716.8 264.261 716.886 264.039 716.96C263.841 717.01 263.607 717.035 263.335 717.035C263.015 717.035 262.743 716.997 262.521 716.923C262.324 716.849 262.163 716.726 262.04 716.553C261.917 716.38 261.818 716.158 261.744 715.887C261.695 715.59 261.67 715.245 261.67 714.85V708.888H259.116V714.813C259.116 715.578 259.19 716.232 259.338 716.775C259.511 717.318 259.758 717.763 260.079 718.108C260.375 718.454 260.732 718.713 261.152 718.886C261.596 719.034 262.077 719.108 262.595 719.108C263.163 719.108 263.681 718.972 264.15 718.701C264.643 718.405 265.062 718.01 265.408 717.516L265.556 718.923ZM279.406 713.998V713.813C279.406 713.22 279.345 712.665 279.221 712.146C279.123 711.603 278.962 711.11 278.74 710.665C278.617 710.418 278.456 710.184 278.259 709.962C278.086 709.715 277.877 709.517 277.63 709.369C277.359 709.147 277.038 708.986 276.668 708.888C276.322 708.764 275.928 708.702 275.483 708.702C275.163 708.702 274.867 708.74 274.595 708.814C274.349 708.888 274.102 708.986 273.855 709.11C273.707 709.184 273.559 709.283 273.411 709.406C273.263 709.53 273.127 709.665 273.004 709.813V704.703H270.45V718.923H272.745L272.893 717.849C272.992 717.997 273.09 718.133 273.189 718.257C273.312 718.355 273.448 718.454 273.596 718.553C273.843 718.726 274.126 718.861 274.447 718.96C274.768 719.059 275.126 719.108 275.52 719.108C275.94 719.108 276.322 719.047 276.668 718.923C277.038 718.824 277.359 718.676 277.63 718.479C277.951 718.257 278.222 717.985 278.444 717.664C278.691 717.343 278.876 716.973 278.999 716.553C279.147 716.207 279.246 715.825 279.295 715.405C279.369 714.961 279.406 714.492 279.406 713.998ZM276.853 713.813V713.998C276.853 714.27 276.84 714.529 276.816 714.776C276.791 714.998 276.754 715.22 276.705 715.442C276.631 715.714 276.532 715.961 276.409 716.183C276.31 716.405 276.162 716.578 275.965 716.701C275.817 716.8 275.644 716.886 275.446 716.96C275.274 717.01 275.076 717.035 274.854 717.035C274.583 717.035 274.349 717.01 274.151 716.96C273.954 716.886 273.769 716.788 273.596 716.664C273.473 716.565 273.362 716.454 273.263 716.331C273.164 716.207 273.078 716.072 273.004 715.924V711.924C273.078 711.801 273.14 711.69 273.189 711.591C273.263 711.492 273.337 711.406 273.411 711.332C273.584 711.159 273.781 711.035 274.003 710.961C274.25 710.863 274.534 710.813 274.854 710.813C275.076 710.813 275.274 710.838 275.446 710.887C275.619 710.937 275.78 711.011 275.928 711.11C276.15 711.282 276.31 711.467 276.409 711.665C276.532 711.862 276.618 712.097 276.668 712.369C276.742 712.566 276.791 712.788 276.816 713.035C276.84 713.282 276.853 713.541 276.853 713.813ZM286.632 719.108C287.595 719.108 288.421 718.923 289.112 718.553C289.827 718.158 290.358 717.738 290.703 717.294L289.408 715.887C289.112 716.282 288.717 716.578 288.224 716.775C287.755 716.948 287.274 717.035 286.78 717.035C286.41 717.035 286.077 716.985 285.781 716.886C285.485 716.763 285.214 716.602 284.967 716.405C284.745 716.207 284.56 715.985 284.412 715.738C284.289 715.492 284.19 715.171 284.116 714.776V714.739H290.888V713.665C290.888 712.924 290.79 712.257 290.592 711.665C290.395 711.048 290.099 710.517 289.704 710.073C289.309 709.653 288.828 709.32 288.261 709.073C287.693 708.826 287.052 708.702 286.336 708.702C285.645 708.702 285.004 708.838 284.412 709.11C283.82 709.357 283.302 709.702 282.857 710.147C282.438 710.616 282.105 711.171 281.858 711.813C281.611 712.43 281.488 713.122 281.488 713.887V714.257C281.488 714.924 281.611 715.553 281.858 716.146C282.105 716.738 282.45 717.257 282.894 717.701C283.339 718.121 283.869 718.466 284.486 718.738C285.127 718.985 285.843 719.108 286.632 719.108ZM286.299 710.813C286.645 710.813 286.941 710.863 287.188 710.961C287.434 711.06 287.644 711.196 287.817 711.369C287.989 711.542 288.125 711.751 288.224 711.998C288.322 712.245 288.372 712.504 288.372 712.776V712.961H284.153C284.202 712.64 284.289 712.344 284.412 712.072C284.535 711.801 284.696 711.579 284.893 711.406C285.066 711.208 285.275 711.06 285.522 710.961C285.769 710.863 286.028 710.813 286.299 710.813ZM300.335 708.702C299.644 708.702 299.015 708.875 298.447 709.221C297.88 709.542 297.399 709.986 297.004 710.554L296.967 710.332L296.893 708.888H294.487V718.923H297.041V712.887C297.164 712.615 297.312 712.381 297.485 712.183C297.683 711.961 297.905 711.776 298.151 711.628C298.349 711.529 298.583 711.455 298.854 711.406C299.126 711.332 299.434 711.295 299.78 711.295C300.1 711.295 300.434 711.319 300.779 711.369C301.124 711.393 301.47 711.443 301.815 711.517L302.185 708.962C301.988 708.912 301.716 708.863 301.371 708.814C301.05 708.74 300.705 708.702 300.335 708.702ZM304.489 718.923H307.08V711.813C307.178 711.665 307.277 711.542 307.376 711.443C307.474 711.319 307.585 711.221 307.709 711.147C307.882 711.023 308.067 710.937 308.264 710.887C308.486 710.838 308.72 710.813 308.967 710.813C309.263 710.813 309.522 710.85 309.744 710.924C309.991 710.974 310.188 711.072 310.336 711.221C310.509 711.369 310.632 711.566 310.706 711.813C310.805 712.06 310.855 712.381 310.855 712.776V718.923H313.445V712.739C313.445 712.023 313.359 711.418 313.186 710.924C313.013 710.406 312.779 709.974 312.483 709.628C312.162 709.307 311.792 709.073 311.373 708.925C310.953 708.777 310.497 708.702 310.003 708.702C309.609 708.702 309.226 708.764 308.856 708.888C308.511 708.986 308.19 709.147 307.894 709.369C307.721 709.492 307.561 709.628 307.413 709.776C307.265 709.925 307.129 710.097 307.006 710.295L306.821 708.888H304.489V718.923ZM320.745 719.108C321.707 719.108 322.534 718.923 323.225 718.553C323.94 718.158 324.471 717.738 324.816 717.294L323.521 715.887C323.225 716.282 322.83 716.578 322.336 716.775C321.868 716.948 321.387 717.035 320.893 717.035C320.523 717.035 320.19 716.985 319.894 716.886C319.598 716.763 319.326 716.602 319.08 716.405C318.858 716.207 318.673 715.985 318.525 715.738C318.401 715.492 318.303 715.171 318.229 714.776V714.739H325.001V713.665C325.001 712.924 324.902 712.257 324.705 711.665C324.508 711.048 324.212 710.517 323.817 710.073C323.422 709.653 322.941 709.32 322.373 709.073C321.806 708.826 321.165 708.702 320.449 708.702C319.758 708.702 319.117 708.838 318.525 709.11C317.932 709.357 317.414 709.702 316.97 710.147C316.551 710.616 316.218 711.171 315.971 711.813C315.724 712.43 315.601 713.122 315.601 713.887V714.257C315.601 714.924 315.724 715.553 315.971 716.146C316.218 716.738 316.563 717.257 317.007 717.701C317.451 718.121 317.982 718.466 318.599 718.738C319.24 718.985 319.956 719.108 320.745 719.108ZM320.412 710.813C320.757 710.813 321.053 710.863 321.3 710.961C321.547 711.06 321.757 711.196 321.929 711.369C322.102 711.542 322.238 711.751 322.336 711.998C322.435 712.245 322.484 712.504 322.484 712.776V712.961H318.266C318.315 712.64 318.401 712.344 318.525 712.072C318.648 711.801 318.808 711.579 319.006 711.406C319.178 711.208 319.388 711.06 319.635 710.961C319.882 710.863 320.141 710.813 320.412 710.813ZM331.968 706.444H329.377V708.888H327.12V710.813H329.377V715.368C329.377 716.01 329.464 716.578 329.636 717.072C329.809 717.541 330.056 717.923 330.377 718.22C330.697 718.516 331.08 718.738 331.524 718.886C331.968 719.034 332.474 719.108 333.041 719.108C333.313 719.108 333.596 719.096 333.892 719.071C334.188 719.047 334.472 719.01 334.744 718.96C335.015 718.911 335.262 718.849 335.484 718.775C335.731 718.701 335.953 718.602 336.15 718.479L335.891 716.738C335.768 716.763 335.619 716.788 335.447 716.812C335.299 716.837 335.126 716.862 334.929 716.886C334.756 716.936 334.559 716.973 334.337 716.997C334.139 716.997 333.942 716.997 333.744 716.997C333.473 716.997 333.226 716.973 333.004 716.923C332.782 716.849 332.597 716.738 332.449 716.59C332.301 716.442 332.178 716.257 332.079 716.035C332.005 715.788 331.968 715.479 331.968 715.109V710.813H335.706V708.888H331.968V706.444ZM343.487 719.108C344.449 719.108 345.276 718.923 345.966 718.553C346.682 718.158 347.212 717.738 347.558 717.294L346.263 715.887C345.966 716.282 345.572 716.578 345.078 716.775C344.609 716.948 344.128 717.035 343.635 717.035C343.265 717.035 342.932 716.985 342.636 716.886C342.34 716.763 342.068 716.602 341.822 716.405C341.599 716.207 341.414 715.985 341.266 715.738C341.143 715.492 341.044 715.171 340.97 714.776V714.739H347.743V713.665C347.743 712.924 347.644 712.257 347.447 711.665C347.249 711.048 346.953 710.517 346.559 710.073C346.164 709.653 345.683 709.32 345.115 709.073C344.548 708.826 343.906 708.702 343.191 708.702C342.5 708.702 341.859 708.838 341.266 709.11C340.674 709.357 340.156 709.702 339.712 710.147C339.293 710.616 338.96 711.171 338.713 711.813C338.466 712.43 338.343 713.122 338.343 713.887V714.257C338.343 714.924 338.466 715.553 338.713 716.146C338.96 716.738 339.305 717.257 339.749 717.701C340.193 718.121 340.724 718.466 341.34 718.738C341.982 718.985 342.697 719.108 343.487 719.108ZM343.154 710.813C343.499 710.813 343.795 710.863 344.042 710.961C344.289 711.06 344.498 711.196 344.671 711.369C344.844 711.542 344.98 711.751 345.078 711.998C345.177 712.245 345.226 712.504 345.226 712.776V712.961H341.007C341.057 712.64 341.143 712.344 341.266 712.072C341.39 711.801 341.55 711.579 341.747 711.406C341.92 711.208 342.13 711.06 342.377 710.961C342.623 710.863 342.882 710.813 343.154 710.813ZM356.449 716.183C356.449 716.331 356.412 716.467 356.338 716.59C356.264 716.714 356.141 716.825 355.968 716.923C355.82 717.022 355.623 717.109 355.376 717.183C355.129 717.232 354.833 717.257 354.488 717.257C354.216 717.257 353.945 717.232 353.674 717.183C353.427 717.133 353.192 717.047 352.97 716.923C352.773 716.8 352.613 716.64 352.489 716.442C352.366 716.245 352.292 716.01 352.267 715.738H349.825C349.825 716.158 349.923 716.565 350.121 716.96C350.318 717.355 350.614 717.713 351.009 718.034C351.379 718.355 351.848 718.615 352.415 718.812C353.007 719.01 353.686 719.108 354.451 719.108C355.117 719.108 355.721 719.034 356.264 718.886C356.832 718.738 357.313 718.528 357.707 718.257C358.102 717.985 358.398 717.664 358.596 717.294C358.818 716.923 358.929 716.516 358.929 716.072C358.929 715.578 358.818 715.158 358.596 714.813C358.398 714.467 358.115 714.171 357.744 713.924C357.374 713.677 356.93 713.48 356.412 713.331C355.894 713.183 355.327 713.06 354.71 712.961C354.29 712.887 353.945 712.813 353.674 712.739C353.402 712.64 353.192 712.541 353.044 712.443C352.872 712.344 352.748 712.233 352.674 712.109C352.625 711.986 352.6 711.85 352.6 711.702C352.6 711.554 352.637 711.418 352.711 711.295C352.785 711.147 352.896 711.023 353.044 710.924C353.192 710.826 353.377 710.752 353.6 710.702C353.846 710.628 354.118 710.591 354.414 710.591C354.784 710.591 355.105 710.64 355.376 710.739C355.647 710.813 355.857 710.924 356.005 711.072C356.104 711.196 356.178 711.332 356.227 711.48C356.301 711.628 356.338 711.788 356.338 711.961H358.892C358.892 711.492 358.793 711.06 358.596 710.665C358.398 710.27 358.102 709.925 357.707 709.628C357.337 709.357 356.869 709.135 356.301 708.962C355.758 708.789 355.129 708.702 354.414 708.702C353.748 708.702 353.143 708.789 352.6 708.962C352.082 709.135 351.638 709.357 351.268 709.628C350.898 709.925 350.614 710.258 350.417 710.628C350.219 710.998 350.121 711.393 350.121 711.813C350.121 712.233 350.219 712.615 350.417 712.961C350.614 713.282 350.886 713.566 351.231 713.813C351.576 714.06 351.983 714.27 352.452 714.442C352.946 714.615 353.488 714.763 354.081 714.887C354.549 714.985 354.932 715.084 355.228 715.183C355.524 715.257 355.771 715.343 355.968 715.442C356.141 715.541 356.264 715.652 356.338 715.775C356.412 715.874 356.449 716.01 356.449 716.183Z" fill="black"></path><path d="M255.849 736.696V734.659H250.298V731.252H256.737V729.142H247.707V742.621H256.774V740.51H250.298V736.696H255.849ZM259.004 742.621H261.595V735.511C261.693 735.363 261.792 735.239 261.891 735.141C261.989 735.017 262.1 734.918 262.224 734.844C262.396 734.721 262.581 734.635 262.779 734.585C263.001 734.536 263.235 734.511 263.482 734.511C263.778 734.511 264.037 734.548 264.259 734.622C264.506 734.672 264.703 734.77 264.851 734.918C265.024 735.067 265.147 735.264 265.221 735.511C265.32 735.758 265.369 736.079 265.369 736.474V742.621H267.96V736.437C267.96 735.721 267.874 735.116 267.701 734.622C267.528 734.104 267.294 733.672 266.998 733.326C266.677 733.005 266.307 732.771 265.888 732.622C265.468 732.474 265.012 732.4 264.518 732.4C264.123 732.4 263.741 732.462 263.371 732.585C263.026 732.684 262.705 732.845 262.409 733.067C262.236 733.19 262.076 733.326 261.928 733.474C261.78 733.622 261.644 733.795 261.521 733.993L261.335 732.585H259.004V742.621ZM270.116 737.548V737.733C270.116 738.449 270.214 739.128 270.412 739.77C270.609 740.387 270.881 740.917 271.226 741.362C271.571 741.806 271.991 742.164 272.484 742.436C272.978 742.683 273.545 742.806 274.187 742.806C274.483 742.806 274.767 742.769 275.038 742.695C275.334 742.621 275.593 742.522 275.815 742.399C275.963 742.325 276.099 742.238 276.222 742.14C276.37 742.016 276.506 741.88 276.629 741.732V742.325C276.629 742.67 276.58 742.979 276.481 743.25C276.383 743.522 276.247 743.744 276.074 743.917C275.877 744.139 275.63 744.3 275.334 744.398C275.038 744.497 274.705 744.547 274.335 744.547C274.113 744.547 273.891 744.522 273.669 744.472C273.447 744.423 273.237 744.361 273.039 744.287C272.817 744.189 272.608 744.065 272.41 743.917C272.238 743.769 272.065 743.596 271.892 743.399L270.745 744.991C270.942 745.262 271.189 745.497 271.485 745.695C271.806 745.892 272.139 746.052 272.484 746.176C272.805 746.324 273.138 746.423 273.484 746.472C273.829 746.546 274.162 746.583 274.483 746.583C275.174 746.583 275.803 746.485 276.37 746.287C276.962 746.09 277.468 745.818 277.888 745.472C278.307 745.102 278.628 744.645 278.85 744.102C279.097 743.584 279.22 742.979 279.22 742.288V732.585H276.888L276.777 733.548C276.654 733.4 276.518 733.264 276.37 733.141C276.222 733.017 276.062 732.906 275.889 732.808C275.667 732.684 275.408 732.585 275.112 732.511C274.841 732.437 274.532 732.4 274.187 732.4C273.57 732.4 273.002 732.524 272.484 732.771C271.991 733.017 271.571 733.375 271.226 733.845C270.881 734.289 270.609 734.832 270.412 735.474C270.214 736.091 270.116 736.782 270.116 737.548ZM272.706 737.733V737.548C272.706 737.128 272.743 736.733 272.817 736.363C272.916 735.992 273.052 735.671 273.224 735.4C273.397 735.128 273.619 734.918 273.891 734.77C274.162 734.597 274.483 734.511 274.853 734.511C275.05 734.511 275.223 734.536 275.371 734.585C275.544 734.61 275.704 734.659 275.852 734.733C276.025 734.807 276.173 734.906 276.296 735.03C276.42 735.153 276.531 735.301 276.629 735.474V739.732C276.555 739.881 276.457 740.016 276.333 740.14C276.21 740.263 276.074 740.374 275.926 740.473C275.778 740.547 275.605 740.609 275.408 740.658C275.235 740.683 275.038 740.695 274.816 740.695C274.446 740.695 274.125 740.621 273.854 740.473C273.607 740.325 273.397 740.115 273.224 739.844C273.052 739.572 272.916 739.263 272.817 738.918C272.743 738.547 272.706 738.152 272.706 737.733ZM282.449 732.585V734.696H285.299V740.51H282.449V742.621H290.591V740.51H287.889V732.585H282.449ZM285.114 730.03C285.114 730.228 285.151 730.413 285.225 730.586C285.299 730.759 285.397 730.907 285.521 731.03C285.644 731.154 285.792 731.252 285.965 731.326C286.162 731.376 286.372 731.4 286.594 731.4C287.038 731.4 287.396 731.277 287.667 731.03C287.939 730.759 288.074 730.425 288.074 730.03C288.074 729.635 287.939 729.314 287.667 729.067C287.396 728.796 287.038 728.66 286.594 728.66C286.372 728.66 286.162 728.697 285.965 728.771C285.792 728.845 285.644 728.932 285.521 729.03C285.397 729.154 285.299 729.302 285.225 729.475C285.151 729.648 285.114 729.833 285.114 730.03ZM293.117 742.621H295.707V735.511C295.806 735.363 295.905 735.239 296.003 735.141C296.102 735.017 296.213 734.918 296.336 734.844C296.509 734.721 296.694 734.635 296.892 734.585C297.114 734.536 297.348 734.511 297.595 734.511C297.891 734.511 298.15 734.548 298.372 734.622C298.619 734.672 298.816 734.77 298.964 734.918C299.137 735.067 299.26 735.264 299.334 735.511C299.433 735.758 299.482 736.079 299.482 736.474V742.621H302.073V736.437C302.073 735.721 301.986 735.116 301.814 734.622C301.641 734.104 301.407 733.672 301.111 733.326C300.79 733.005 300.42 732.771 300 732.622C299.581 732.474 299.124 732.4 298.631 732.4C298.236 732.4 297.854 732.462 297.484 732.585C297.138 732.684 296.818 732.845 296.521 733.067C296.349 733.19 296.188 733.326 296.04 733.474C295.892 733.622 295.757 733.795 295.633 733.993L295.448 732.585H293.117V742.621ZM309.373 742.806C310.335 742.806 311.161 742.621 311.852 742.251C312.568 741.856 313.098 741.436 313.444 740.992L312.148 739.584C311.852 739.979 311.458 740.276 310.964 740.473C310.495 740.646 310.014 740.732 309.521 740.732C309.151 740.732 308.818 740.683 308.522 740.584C308.225 740.461 307.954 740.3 307.707 740.103C307.485 739.905 307.3 739.683 307.152 739.436C307.029 739.189 306.93 738.868 306.856 738.473V738.436H313.629V737.362C313.629 736.622 313.53 735.955 313.333 735.363C313.135 734.746 312.839 734.215 312.444 733.77C312.05 733.351 311.569 733.017 311.001 732.771C310.434 732.524 309.792 732.4 309.077 732.4C308.386 732.4 307.744 732.536 307.152 732.808C306.56 733.055 306.042 733.4 305.598 733.845C305.178 734.314 304.845 734.869 304.599 735.511C304.352 736.128 304.229 736.819 304.229 737.585V737.955C304.229 738.622 304.352 739.251 304.599 739.844C304.845 740.436 305.191 740.955 305.635 741.399C306.079 741.819 306.609 742.164 307.226 742.436C307.868 742.683 308.583 742.806 309.373 742.806ZM309.04 734.511C309.385 734.511 309.681 734.56 309.928 734.659C310.175 734.758 310.384 734.894 310.557 735.067C310.73 735.239 310.865 735.449 310.964 735.696C311.063 735.943 311.112 736.202 311.112 736.474V736.659H306.893C306.943 736.338 307.029 736.042 307.152 735.77C307.276 735.499 307.436 735.276 307.633 735.104C307.806 734.906 308.016 734.758 308.262 734.659C308.509 734.56 308.768 734.511 309.04 734.511Z" fill="black"></path><path d="M102.612 826.354V824.059H108.497V829.465C107.929 830.033 107.103 830.527 106.017 830.946C104.932 831.366 103.834 831.576 102.723 831.576C101.292 831.576 100.046 831.28 98.9856 830.687C97.9493 830.095 97.1598 829.243 96.617 828.132C96.0989 827.021 95.8398 825.811 95.8398 824.503C95.8398 823.096 96.1359 821.849 96.7281 820.763C97.3202 819.652 98.1837 818.8 99.3187 818.208C100.182 817.763 101.268 817.541 102.575 817.541C104.253 817.541 105.561 817.899 106.498 818.615C107.461 819.306 108.077 820.281 108.349 821.54L105.61 822.059C105.413 821.392 105.055 820.861 104.537 820.466C104.019 820.071 103.365 819.874 102.575 819.874C101.366 819.874 100.404 820.257 99.6887 821.022C98.9979 821.787 98.6525 822.911 98.6525 824.392C98.6525 826.021 99.0102 827.243 99.7258 828.058C100.441 828.848 101.379 829.243 102.538 829.243C103.106 829.243 103.673 829.132 104.241 828.91C104.833 828.687 105.339 828.416 105.758 828.095V826.354H102.612ZM111.023 831.354V817.763H115.427C117.104 817.763 118.19 817.837 118.683 817.985C119.473 818.183 120.127 818.627 120.645 819.319C121.163 819.985 121.422 820.861 121.422 821.948C121.422 822.787 121.274 823.491 120.978 824.059C120.682 824.626 120.299 825.071 119.831 825.392C119.362 825.713 118.881 825.922 118.387 826.021C117.746 826.169 116.808 826.243 115.575 826.243H113.761V831.354H111.023ZM113.761 820.059V823.91H115.279C116.364 823.91 117.08 823.849 117.425 823.725C117.795 823.577 118.079 823.355 118.276 823.059C118.498 822.738 118.609 822.38 118.609 821.985C118.609 821.491 118.461 821.084 118.165 820.763C117.869 820.442 117.499 820.244 117.055 820.17C116.734 820.096 116.08 820.059 115.094 820.059H113.761ZM123.661 817.763H126.4V825.132C126.4 826.293 126.437 827.046 126.511 827.391C126.609 827.959 126.881 828.416 127.325 828.761C127.769 829.082 128.374 829.243 129.138 829.243C129.928 829.243 130.52 829.082 130.915 828.761C131.31 828.441 131.544 828.058 131.618 827.614C131.692 827.144 131.729 826.367 131.729 825.281V817.763H134.468V824.91C134.468 826.54 134.394 827.688 134.246 828.354C134.098 829.021 133.826 829.589 133.431 830.058C133.037 830.527 132.506 830.897 131.84 831.169C131.174 831.44 130.298 831.576 129.212 831.576C127.929 831.576 126.955 831.428 126.289 831.131C125.623 830.835 125.092 830.453 124.697 829.984C124.303 829.49 124.044 828.984 123.92 828.465C123.747 827.675 123.661 826.527 123.661 825.021V817.763ZM142.054 824.651C142.054 823.269 142.264 822.108 142.684 821.17C143.004 820.479 143.424 819.862 143.942 819.319C144.485 818.751 145.077 818.343 145.718 818.096C146.557 817.726 147.532 817.541 148.642 817.541C150.64 817.541 152.232 818.171 153.416 819.43C154.625 820.664 155.229 822.38 155.229 824.577C155.229 826.774 154.625 828.49 153.416 829.724C152.232 830.959 150.653 831.576 148.679 831.576C146.656 831.576 145.04 830.959 143.831 829.724C142.647 828.49 142.054 826.799 142.054 824.651ZM144.904 824.54C144.904 826.095 145.249 827.268 145.94 828.058C146.656 828.848 147.556 829.243 148.642 829.243C149.752 829.243 150.653 828.848 151.344 828.058C152.034 827.268 152.38 826.083 152.38 824.503C152.38 822.948 152.034 821.787 151.344 821.022C150.677 820.257 149.777 819.874 148.642 819.874C147.532 819.874 146.631 820.269 145.94 821.059C145.249 821.824 144.904 822.985 144.904 824.54ZM157.348 831.354V817.763H161.752C163.43 817.763 164.516 817.837 165.009 817.985C165.798 818.183 166.452 818.627 166.97 819.319C167.489 819.985 167.748 820.861 167.748 821.948C167.748 822.787 167.6 823.491 167.304 824.059C167.007 824.626 166.625 825.071 166.156 825.392C165.687 825.713 165.206 825.922 164.713 826.021C164.071 826.169 163.134 826.243 161.9 826.243H160.087V831.354H157.348ZM160.087 820.059V823.91H161.604C162.69 823.91 163.405 823.849 163.751 823.725C164.121 823.577 164.405 823.355 164.602 823.059C164.824 822.738 164.935 822.38 164.935 821.985C164.935 821.491 164.787 821.084 164.491 820.763C164.195 820.442 163.825 820.244 163.381 820.17C163.06 820.096 162.406 820.059 161.419 820.059H160.087ZM169.987 831.354V817.763H180.053V820.059H172.725V823.096H179.535V825.355H172.725V829.058H180.312V831.354H169.987ZM182.662 831.354V817.763H188.398C189.854 817.763 190.903 817.887 191.544 818.134C192.21 818.38 192.741 818.825 193.136 819.467C193.53 820.084 193.728 820.787 193.728 821.577C193.728 822.59 193.432 823.429 192.839 824.096C192.247 824.762 191.359 825.182 190.175 825.355C190.767 825.7 191.248 826.083 191.618 826.503C192.013 826.922 192.531 827.651 193.173 828.687L194.838 831.354H191.581L189.583 828.391C188.892 827.33 188.411 826.663 188.139 826.391C187.893 826.12 187.621 825.935 187.325 825.836C187.029 825.737 186.573 825.688 185.956 825.688H185.401V831.354H182.662ZM185.401 823.503H187.399C188.732 823.503 189.558 823.454 189.879 823.355C190.2 823.231 190.446 823.034 190.619 822.762C190.816 822.491 190.915 822.158 190.915 821.763C190.915 821.294 190.792 820.923 190.545 820.652C190.298 820.38 189.953 820.207 189.509 820.133C189.287 820.084 188.62 820.059 187.51 820.059H185.401V823.503ZM208.559 831.354H205.561L204.377 828.28H198.974L197.863 831.354H194.94L200.232 817.763H203.119L208.559 831.354ZM203.526 825.984L201.638 820.948L199.825 825.984H203.526ZM211.658 831.354V820.059H207.624V817.763H218.394V820.059H214.397V831.354H211.658ZM219.264 824.651C219.264 823.269 219.473 822.108 219.893 821.17C220.214 820.479 220.633 819.862 221.151 819.319C221.694 818.751 222.286 818.343 222.927 818.096C223.766 817.726 224.741 817.541 225.851 817.541C227.85 817.541 229.441 818.171 230.625 819.43C231.834 820.664 232.439 822.38 232.439 824.577C232.439 826.774 231.834 828.49 230.625 829.724C229.441 830.959 227.862 831.576 225.888 831.576C223.865 831.576 222.249 830.959 221.04 829.724C219.856 828.49 219.264 826.799 219.264 824.651ZM222.113 824.54C222.113 826.095 222.459 827.268 223.15 828.058C223.865 828.848 224.766 829.243 225.851 829.243C226.961 829.243 227.862 828.848 228.553 828.058C229.244 827.268 229.589 826.083 229.589 824.503C229.589 822.948 229.244 821.787 228.553 821.022C227.887 820.257 226.986 819.874 225.851 819.874C224.741 819.874 223.84 820.269 223.15 821.059C222.459 821.824 222.113 822.985 222.113 824.54ZM234.594 831.354V817.763H240.331C241.786 817.763 242.835 817.887 243.477 818.134C244.143 818.38 244.673 818.825 245.068 819.467C245.463 820.084 245.66 820.787 245.66 821.577C245.66 822.59 245.364 823.429 244.772 824.096C244.18 824.762 243.291 825.182 242.107 825.355C242.699 825.7 243.18 826.083 243.551 826.503C243.945 826.922 244.463 827.651 245.105 828.687L246.77 831.354H243.514L241.515 828.391C240.824 827.33 240.343 826.663 240.072 826.391C239.825 826.12 239.554 825.935 239.258 825.836C238.961 825.737 238.505 825.688 237.888 825.688H237.333V831.354H234.594ZM237.333 823.503H239.332C240.664 823.503 241.49 823.454 241.811 823.355C242.132 823.231 242.379 823.034 242.551 822.762C242.749 822.491 242.847 822.158 242.847 821.763C242.847 821.294 242.724 820.923 242.477 820.652C242.231 820.38 241.885 820.207 241.441 820.133C241.219 820.084 240.553 820.059 239.443 820.059H237.333V823.503Z" fill="black"></path><mask id="mask5_209_2213" style="mask-type:luminance" maskUnits="userSpaceOnUse" x="130" y="737" width="89" height="69"><path fill-rule="evenodd" clip-rule="evenodd" d="M130.525 737.357H218.51V805.464H130.525V737.357Z" fill="white"></path></mask><g mask="url(#mask5_209_2213)"><rect x="130.525" y="737.357" width="87.9843" height="68.1066" fill="url(#pattern4_209_2213)"></rect></g><path fill-rule="evenodd" clip-rule="evenodd" d="M471.076 509.689H885.442L889.908 924.119L471.076 924.924V509.689Z" fill="#CFE2F3" fill-opacity="0.5"></path><path fill-rule="evenodd" clip-rule="evenodd" d="M885.111 548.725L1010.7 423.059L1010.85 800.015L891.373 923.849L885.111 548.725Z" fill="#A5B4C2" fill-opacity="0.5"></path><path d="M471.076 548.725L596.665 423.059H1011.03M471.076 548.725V925.723H890.641M471.076 548.725H885.442M1011.03 423.059V800.057L890.641 925.723M1011.03 423.059L885.442 548.725M890.641 925.723L885.442 548.725" stroke="black" stroke-miterlimit="10" stroke-linejoin="round"></path><mask id="mask6_209_2213" style="mask-type:luminance" maskUnits="userSpaceOnUse" x="740" y="619" width="119" height="94"><path fill-rule="evenodd" clip-rule="evenodd" d="M740.023 619.141H858.392V712.656H740.023V619.141Z" fill="white"></path></mask><g mask="url(#mask6_209_2213)"><rect x="740.023" y="619.141" width="118.368" height="93.5149" fill="url(#pattern5_209_2213)"></rect></g><path d="M608.353 653.989V643.472C608.353 641.349 608.193 639.313 607.872 637.362C607.576 635.387 607.12 633.536 606.503 631.808C605.664 629.363 604.517 627.166 603.061 625.216C601.63 623.241 599.965 621.562 598.065 620.18C596.362 619.019 594.463 618.118 592.365 617.476C590.293 616.835 588.072 616.514 585.704 616.514C583.311 616.514 581.103 616.835 579.079 617.476C577.056 618.118 575.218 619.019 573.565 620.18C571.764 621.463 570.21 623.019 568.902 624.846C567.594 626.673 566.558 628.709 565.793 630.956C565.127 632.758 564.621 634.721 564.276 636.844C563.931 638.967 563.758 641.176 563.758 643.472V653.989C563.758 655.989 563.931 657.939 564.276 659.84C564.646 661.741 565.176 663.543 565.867 665.247C566.657 667.172 567.681 668.987 568.939 670.69C570.197 672.394 571.678 673.85 573.38 675.06C575.033 676.245 576.884 677.183 578.931 677.874C581.004 678.541 583.261 678.874 585.704 678.874C586.765 678.874 587.801 678.8 588.813 678.652C589.849 678.504 590.848 678.306 591.81 678.06L603.357 688.725L610.87 682.022L600.84 672.949C601.926 671.912 602.888 670.777 603.727 669.542C604.591 668.308 605.319 667.012 605.911 665.654C606.7 663.901 607.292 662.037 607.687 660.062C608.082 658.087 608.304 656.063 608.353 653.989ZM596.473 643.398V653.989C596.473 655.1 596.399 656.211 596.251 657.322C596.128 658.408 595.918 659.458 595.622 660.47C595.252 661.828 594.722 663.111 594.031 664.321C593.365 665.506 592.538 666.506 591.551 667.32C590.786 667.888 589.911 668.357 588.924 668.728C587.961 669.073 586.888 669.246 585.704 669.246C584.52 669.246 583.459 669.086 582.521 668.765C581.608 668.419 580.806 667.938 580.116 667.32C579.129 666.506 578.315 665.494 577.673 664.284C577.056 663.05 576.575 661.679 576.23 660.173C576.008 659.211 575.847 658.211 575.749 657.174C575.65 656.112 575.601 655.051 575.601 653.989V643.398C575.601 642.139 575.638 640.942 575.712 639.806C575.81 638.646 575.946 637.547 576.119 636.51C576.39 634.733 576.834 633.141 577.451 631.733C578.092 630.302 578.931 629.117 579.968 628.178C580.708 627.561 581.547 627.092 582.484 626.771C583.422 626.426 584.495 626.253 585.704 626.253C586.938 626.253 588.06 626.438 589.072 626.808C590.083 627.154 590.984 627.648 591.773 628.29C592.563 629.03 593.278 629.944 593.92 631.03C594.561 632.091 595.055 633.276 595.4 634.585C595.77 635.819 596.042 637.189 596.214 638.695C596.387 640.201 596.473 641.769 596.473 643.398ZM658.93 659.025H647.235C647.112 660.852 646.804 662.42 646.31 663.728C645.817 665.037 645.138 666.111 644.275 666.95C643.411 667.765 642.363 668.37 641.129 668.765C639.92 669.16 638.551 669.357 637.021 669.357C635.886 669.357 634.85 669.234 633.912 668.987C632.999 668.715 632.161 668.296 631.396 667.728C630.705 667.234 630.088 666.617 629.545 665.876C629.002 665.111 628.534 664.247 628.139 663.284C627.596 661.852 627.189 660.186 626.918 658.285C626.671 656.384 626.548 654.224 626.548 651.804V643.583C626.548 641.806 626.622 640.152 626.77 638.621C626.942 637.066 627.214 635.646 627.584 634.363C628.053 632.733 628.682 631.301 629.471 630.067C630.261 628.808 631.223 627.845 632.358 627.179C633.024 626.808 633.752 626.524 634.541 626.327C635.331 626.129 636.182 626.031 637.095 626.031C638.822 626.031 640.302 626.265 641.536 626.734C642.77 627.179 643.806 627.845 644.645 628.734C645.459 629.647 646.076 630.783 646.495 632.141C646.915 633.499 647.186 635.091 647.309 636.918H658.967C658.696 633.733 658.03 630.882 656.969 628.364C655.908 625.845 654.464 623.71 652.639 621.957C650.813 620.204 648.592 618.859 645.977 617.921C643.387 616.958 640.426 616.477 637.095 616.477C634.85 616.477 632.753 616.76 630.804 617.328C628.854 617.896 627.053 618.711 625.4 619.772C623.575 621.031 621.934 622.562 620.478 624.364C619.047 626.166 617.888 628.215 616.999 630.511C616.21 632.412 615.618 634.474 615.223 636.696C614.853 638.893 614.668 641.213 614.668 643.658V651.804C614.668 654.421 614.878 656.902 615.297 659.248C615.741 661.568 616.358 663.704 617.147 665.654C617.986 667.604 619.01 669.382 620.219 670.987C621.428 672.591 622.81 673.961 624.364 675.097C626.066 676.331 627.979 677.282 630.1 677.948C632.222 678.59 634.529 678.911 637.021 678.911C640.179 678.911 643.066 678.442 645.681 677.504C648.296 676.566 650.542 675.233 652.417 673.505C654.316 671.801 655.821 669.728 656.932 667.283C658.067 664.839 658.733 662.087 658.93 659.025ZM705.288 651.434V642.176H680.418V626.919H709.396V617.365H668.65V678.023H709.507V668.58H680.418V651.434H705.288Z" fill="black"></path><g clip-path="url(#clip1_209_2213)"><path d="M636.204 709.674H634.021C633.996 710.02 633.934 710.316 633.836 710.563C633.762 710.785 633.638 710.983 633.466 711.156C633.318 711.304 633.132 711.415 632.91 711.489C632.688 711.563 632.429 711.6 632.133 711.6C631.936 711.6 631.751 711.575 631.578 711.526C631.405 711.477 631.245 711.403 631.097 711.304C630.974 711.205 630.863 711.094 630.764 710.97C630.665 710.822 630.579 710.65 630.505 710.452C630.406 710.205 630.332 709.909 630.283 709.563C630.233 709.193 630.209 708.786 630.209 708.341V706.823C630.209 706.502 630.221 706.206 630.246 705.934C630.27 705.638 630.32 705.366 630.394 705.12C630.468 704.823 630.579 704.564 630.727 704.342C630.875 704.095 631.06 703.91 631.282 703.786C631.405 703.712 631.541 703.663 631.689 703.638C631.837 703.589 631.998 703.564 632.17 703.564C632.466 703.564 632.725 703.614 632.947 703.712C633.194 703.786 633.392 703.91 633.54 704.083C633.688 704.255 633.799 704.465 633.873 704.712C633.971 704.959 634.033 705.255 634.058 705.601H636.204C636.155 705.008 636.031 704.478 635.834 704.009C635.637 703.54 635.365 703.145 635.02 702.824C634.675 702.503 634.267 702.256 633.799 702.083C633.33 701.91 632.787 701.824 632.17 701.824C631.751 701.824 631.356 701.873 630.986 701.972C630.616 702.071 630.283 702.219 629.987 702.416C629.641 702.663 629.333 702.959 629.062 703.305C628.815 703.626 628.605 703.996 628.432 704.416C628.284 704.762 628.173 705.144 628.099 705.564C628.025 705.959 627.988 706.379 627.988 706.823V708.341C627.988 708.835 628.025 709.304 628.099 709.748C628.198 710.168 628.321 710.551 628.469 710.896C628.617 711.267 628.802 711.6 629.025 711.896C629.247 712.193 629.506 712.439 629.802 712.637C630.122 712.884 630.468 713.069 630.838 713.192C631.233 713.291 631.664 713.34 632.133 713.34C632.725 713.34 633.256 713.254 633.725 713.081C634.218 712.908 634.637 712.674 634.983 712.378C635.328 712.057 635.6 711.674 635.797 711.23C636.019 710.761 636.155 710.242 636.204 709.674ZM637.634 708.934V709.119C637.634 709.736 637.721 710.304 637.893 710.822C638.091 711.316 638.35 711.76 638.671 712.155C639.016 712.526 639.435 712.822 639.929 713.044C640.422 713.242 640.977 713.34 641.594 713.34C642.211 713.34 642.766 713.242 643.26 713.044C643.753 712.822 644.16 712.526 644.481 712.155C644.826 711.76 645.085 711.316 645.258 710.822C645.431 710.304 645.517 709.736 645.517 709.119V708.934C645.517 708.341 645.431 707.786 645.258 707.267C645.085 706.749 644.826 706.305 644.481 705.934C644.136 705.539 643.716 705.243 643.223 705.045C642.754 704.823 642.211 704.712 641.594 704.712C640.953 704.712 640.385 704.823 639.892 705.045C639.423 705.243 639.016 705.539 638.671 705.934C638.35 706.305 638.091 706.749 637.893 707.267C637.721 707.786 637.634 708.341 637.634 708.934ZM639.781 709.119V708.934C639.781 708.613 639.818 708.304 639.892 708.008C639.966 707.687 640.065 707.415 640.188 707.193C640.336 706.946 640.521 706.761 640.743 706.638C640.99 706.514 641.274 706.453 641.594 706.453C641.915 706.453 642.186 706.514 642.408 706.638C642.631 706.761 642.816 706.946 642.964 707.193C643.087 707.415 643.186 707.687 643.26 708.008C643.334 708.304 643.371 708.613 643.371 708.934V709.119C643.371 709.465 643.334 709.798 643.26 710.119C643.186 710.415 643.087 710.674 642.964 710.896C642.816 711.119 642.631 711.304 642.408 711.452C642.186 711.575 641.915 711.637 641.594 711.637C641.274 711.637 640.99 711.575 640.743 711.452C640.521 711.304 640.336 711.119 640.188 710.896C640.065 710.674 639.966 710.415 639.892 710.119C639.818 709.798 639.781 709.465 639.781 709.119ZM647.391 713.192H649.538V707.267C649.612 707.144 649.686 707.045 649.76 706.971C649.859 706.872 649.97 706.786 650.093 706.712C650.216 706.638 650.364 706.576 650.537 706.527C650.71 706.477 650.895 706.453 651.092 706.453C651.339 706.453 651.561 706.477 651.758 706.527C651.956 706.576 652.128 706.663 652.276 706.786C652.4 706.909 652.499 707.082 652.573 707.304C652.647 707.502 652.684 707.761 652.684 708.082V713.192H654.83V708.045C654.83 707.453 654.756 706.946 654.608 706.527C654.485 706.107 654.3 705.761 654.053 705.49C653.782 705.218 653.473 705.021 653.128 704.897C652.782 704.774 652.4 704.712 651.98 704.712C651.66 704.712 651.351 704.762 651.055 704.86C650.759 704.934 650.488 705.058 650.241 705.231C650.093 705.329 649.957 705.453 649.834 705.601C649.711 705.724 649.587 705.86 649.464 706.008L649.353 704.86H647.391V713.192ZM660.775 702.824H658.666V704.86H656.741V706.453H658.666V710.23C658.666 710.773 658.727 711.242 658.851 711.637C658.999 712.032 659.208 712.353 659.48 712.6C659.751 712.871 660.072 713.069 660.442 713.192C660.812 713.291 661.219 713.34 661.663 713.34C661.91 713.34 662.157 713.328 662.404 713.303C662.65 713.279 662.885 713.254 663.107 713.229C663.329 713.18 663.538 713.131 663.736 713.081C663.933 713.007 664.106 712.921 664.254 712.822L664.069 711.378C663.97 711.403 663.847 711.427 663.699 711.452C663.576 711.477 663.427 711.501 663.255 711.526C663.107 711.551 662.946 711.575 662.774 711.6C662.601 711.6 662.428 711.6 662.256 711.6C662.033 711.6 661.824 711.575 661.626 711.526C661.454 711.477 661.306 711.39 661.182 711.267C661.059 711.143 660.96 710.983 660.886 710.785C660.812 710.588 660.775 710.329 660.775 710.008V706.453H663.884V704.86H660.775V702.824ZM671.531 713.192H673.715V713.044C673.592 712.847 673.505 712.6 673.456 712.304C673.407 712.007 673.382 711.637 673.382 711.193V707.638C673.382 707.144 673.283 706.712 673.086 706.342C672.913 705.971 672.666 705.675 672.346 705.453C672.025 705.206 671.642 705.021 671.198 704.897C670.779 704.774 670.322 704.712 669.829 704.712C669.262 704.712 668.756 704.786 668.312 704.934C667.892 705.058 667.534 705.243 667.238 705.49C666.942 705.737 666.708 706.021 666.535 706.342C666.387 706.663 666.313 706.996 666.313 707.341H668.46C668.46 707.193 668.472 707.058 668.497 706.934C668.546 706.811 668.62 706.7 668.719 706.601C668.817 706.502 668.941 706.428 669.089 706.379C669.262 706.329 669.471 706.305 669.718 706.305C669.965 706.305 670.187 706.342 670.384 706.416C670.582 706.465 670.742 706.551 670.865 706.675C670.989 706.798 671.075 706.934 671.124 707.082C671.198 707.23 671.235 707.403 671.235 707.601V708.119H670.051C669.434 708.119 668.879 708.168 668.386 708.267C667.917 708.366 667.522 708.526 667.201 708.749C666.831 708.971 666.56 709.267 666.387 709.637C666.214 709.983 666.128 710.39 666.128 710.859C666.128 711.23 666.202 711.563 666.35 711.859C666.498 712.155 666.696 712.415 666.942 712.637C667.189 712.859 667.485 713.032 667.831 713.155C668.201 713.279 668.608 713.34 669.052 713.34C669.299 713.34 669.533 713.316 669.755 713.266C669.977 713.217 670.187 713.155 670.384 713.081C670.582 712.983 670.754 712.884 670.902 712.785C671.05 712.662 671.186 712.538 671.309 712.415C671.334 712.563 671.359 712.711 671.383 712.859C671.433 712.983 671.482 713.094 671.531 713.192ZM669.496 711.674C669.299 711.674 669.113 711.649 668.941 711.6C668.793 711.551 668.669 711.489 668.571 711.415C668.472 711.341 668.398 711.242 668.349 711.119C668.299 710.97 668.275 710.822 668.275 710.674C668.275 710.501 668.312 710.341 668.386 710.193C668.46 710.02 668.571 709.872 668.719 709.748C668.867 709.625 669.052 709.539 669.274 709.489C669.521 709.415 669.804 709.378 670.125 709.378H671.235V710.822C671.161 710.921 671.075 711.032 670.976 711.156C670.878 711.254 670.754 711.341 670.606 711.415C670.458 711.489 670.285 711.551 670.088 711.6C669.915 711.649 669.718 711.674 669.496 711.674ZM676.366 704.86V706.601H678.735V711.452H676.366V713.192H683.139V711.452H680.881V704.86H676.366ZM678.587 702.713C678.587 702.885 678.612 703.046 678.661 703.194C678.71 703.317 678.797 703.428 678.92 703.527C679.019 703.651 679.142 703.737 679.29 703.786C679.438 703.836 679.611 703.86 679.808 703.86C680.178 703.86 680.474 703.762 680.696 703.564C680.918 703.342 681.029 703.058 681.029 702.713C681.029 702.392 680.918 702.132 680.696 701.935C680.474 701.713 680.178 701.602 679.808 701.602C679.611 701.602 679.438 701.626 679.29 701.676C679.142 701.725 679.019 701.799 678.92 701.898C678.797 701.997 678.71 702.12 678.661 702.268C678.612 702.416 678.587 702.564 678.587 702.713ZM685.235 713.192H687.382V707.267C687.456 707.144 687.53 707.045 687.604 706.971C687.702 706.872 687.813 706.786 687.937 706.712C688.06 706.638 688.208 706.576 688.381 706.527C688.554 706.477 688.739 706.453 688.936 706.453C689.183 706.453 689.405 706.477 689.602 706.527C689.8 706.576 689.972 706.663 690.12 706.786C690.244 706.909 690.342 707.082 690.416 707.304C690.49 707.502 690.527 707.761 690.527 708.082V713.192H692.674V708.045C692.674 707.453 692.6 706.946 692.452 706.527C692.328 706.107 692.143 705.761 691.897 705.49C691.625 705.218 691.317 705.021 690.971 704.897C690.626 704.774 690.244 704.712 689.824 704.712C689.503 704.712 689.195 704.762 688.899 704.86C688.603 704.934 688.332 705.058 688.085 705.231C687.937 705.329 687.801 705.453 687.678 705.601C687.554 705.724 687.431 705.86 687.308 706.008L687.197 704.86H685.235V713.192ZM698.767 713.34C699.557 713.34 700.247 713.192 700.839 712.896C701.432 712.575 701.863 712.217 702.135 711.822L701.062 710.674C700.815 710.995 700.494 711.242 700.099 711.415C699.705 711.563 699.297 711.637 698.878 711.637C698.582 711.637 698.311 711.588 698.064 711.489C697.817 711.39 697.595 711.254 697.398 711.082C697.2 710.933 697.04 710.761 696.917 710.563C696.818 710.341 696.732 710.069 696.658 709.748V709.711H702.32V708.823C702.32 708.205 702.233 707.65 702.061 707.156C701.888 706.638 701.641 706.193 701.321 705.823C700.975 705.478 700.568 705.206 700.099 705.008C699.631 704.811 699.1 704.712 698.508 704.712C697.94 704.712 697.41 704.823 696.917 705.045C696.423 705.243 695.991 705.527 695.621 705.897C695.276 706.292 694.992 706.749 694.77 707.267C694.573 707.786 694.474 708.366 694.474 709.008V709.304C694.474 709.872 694.573 710.403 694.77 710.896C694.992 711.39 695.288 711.81 695.658 712.155C696.028 712.526 696.472 712.822 696.991 713.044C697.533 713.242 698.126 713.34 698.767 713.34ZM698.508 706.453C698.779 706.453 699.014 706.49 699.211 706.564C699.433 706.638 699.606 706.749 699.729 706.897C699.877 707.045 699.988 707.23 700.062 707.453C700.161 707.65 700.21 707.86 700.21 708.082V708.23H696.695C696.744 707.959 696.818 707.712 696.917 707.49C697.015 707.267 697.151 707.082 697.324 706.934C697.472 706.761 697.644 706.638 697.842 706.564C698.039 706.49 698.261 706.453 698.508 706.453ZM710.152 704.712C709.585 704.712 709.067 704.848 708.598 705.12C708.129 705.391 707.722 705.761 707.377 706.23V706.045L707.303 704.86H705.304V713.192H707.451V708.193C707.525 707.946 707.636 707.736 707.784 707.564C707.957 707.391 708.142 707.255 708.339 707.156C708.512 707.058 708.709 706.983 708.931 706.934C709.153 706.885 709.4 706.86 709.671 706.86C709.943 706.86 710.226 706.872 710.522 706.897C710.819 706.922 711.115 706.971 711.411 707.045L711.707 704.897C711.534 704.848 711.312 704.811 711.041 704.786C710.769 704.737 710.473 704.712 710.152 704.712ZM729.926 708.267V706.564H725.299V703.749H730.666V701.972H723.153V713.192H730.703V711.452H725.299V708.267H729.926ZM732.54 713.192H734.686V707.267C734.76 707.144 734.834 707.045 734.908 706.971C735.007 706.872 735.118 706.786 735.241 706.712C735.365 706.638 735.513 706.576 735.686 706.527C735.858 706.477 736.043 706.453 736.241 706.453C736.487 706.453 736.709 706.477 736.907 706.527C737.104 706.576 737.277 706.663 737.425 706.786C737.548 706.909 737.647 707.082 737.721 707.304C737.795 707.502 737.832 707.761 737.832 708.082V713.192H739.979V708.045C739.979 707.453 739.905 706.946 739.757 706.527C739.633 706.107 739.448 705.761 739.201 705.49C738.93 705.218 738.622 705.021 738.276 704.897C737.931 704.774 737.548 704.712 737.129 704.712C736.808 704.712 736.5 704.762 736.204 704.86C735.908 704.934 735.636 705.058 735.39 705.231C735.241 705.329 735.106 705.453 734.982 705.601C734.859 705.724 734.736 705.86 734.612 706.008L734.501 704.86H732.54V713.192ZM741.816 708.971V709.119C741.816 709.736 741.89 710.304 742.038 710.822C742.186 711.341 742.408 711.785 742.704 712.155C743 712.526 743.345 712.822 743.74 713.044C744.16 713.242 744.628 713.34 745.146 713.34C745.418 713.34 745.665 713.316 745.887 713.266C746.133 713.217 746.343 713.131 746.516 713.007C746.639 712.958 746.763 712.884 746.886 712.785C747.009 712.686 747.12 712.575 747.219 712.452V712.933C747.219 713.229 747.17 713.489 747.071 713.711C746.997 713.933 746.886 714.118 746.738 714.266C746.59 714.439 746.392 714.563 746.146 714.637C745.899 714.735 745.615 714.785 745.295 714.785C745.097 714.785 744.9 714.76 744.702 714.711C744.53 714.686 744.369 714.637 744.221 714.563C744.049 714.488 743.876 714.39 743.703 714.266C743.555 714.143 743.407 714.007 743.259 713.859L742.297 715.155C742.47 715.377 742.679 715.575 742.926 715.748C743.197 715.92 743.469 716.056 743.74 716.155C744.036 716.254 744.32 716.328 744.591 716.377C744.887 716.451 745.159 716.488 745.406 716.488C745.998 716.488 746.528 716.402 746.997 716.229C747.49 716.081 747.91 715.859 748.255 715.562C748.601 715.241 748.872 714.859 749.069 714.414C749.267 713.995 749.365 713.501 749.365 712.933V704.86H747.404L747.33 705.638C747.231 705.515 747.12 705.403 746.997 705.305C746.874 705.206 746.738 705.12 746.59 705.045C746.392 704.922 746.17 704.836 745.924 704.786C745.702 704.737 745.455 704.712 745.183 704.712C744.665 704.712 744.197 704.811 743.777 705.008C743.358 705.206 743 705.502 742.704 705.897C742.408 706.268 742.186 706.712 742.038 707.23C741.89 707.749 741.816 708.329 741.816 708.971ZM743.962 709.119V708.971C743.962 708.625 743.987 708.304 744.036 708.008C744.11 707.687 744.221 707.415 744.369 707.193C744.517 706.946 744.702 706.761 744.924 706.638C745.146 706.514 745.406 706.453 745.702 706.453C745.874 706.453 746.022 706.465 746.146 706.49C746.294 706.514 746.429 706.564 746.553 706.638C746.701 706.687 746.824 706.774 746.923 706.897C747.046 706.996 747.145 707.119 747.219 707.267V710.785C747.145 710.909 747.059 711.032 746.96 711.156C746.861 711.254 746.75 711.341 746.627 711.415C746.503 711.464 746.355 711.514 746.183 711.563C746.035 711.588 745.874 711.6 745.702 711.6C745.406 711.6 745.146 711.538 744.924 711.415C744.702 711.291 744.517 711.119 744.369 710.896C744.221 710.674 744.11 710.415 744.036 710.119C743.987 709.798 743.962 709.465 743.962 709.119ZM752.054 704.86V706.601H754.422V711.452H752.054V713.192H758.827V711.452H756.569V704.86H752.054ZM754.274 702.713C754.274 702.885 754.299 703.046 754.348 703.194C754.398 703.317 754.484 703.428 754.608 703.527C754.706 703.651 754.83 703.737 754.978 703.786C755.126 703.836 755.298 703.86 755.496 703.86C755.866 703.86 756.162 703.762 756.384 703.564C756.606 703.342 756.717 703.058 756.717 702.713C756.717 702.392 756.606 702.132 756.384 701.935C756.162 701.713 755.866 701.602 755.496 701.602C755.298 701.602 755.126 701.626 754.978 701.676C754.83 701.725 754.706 701.799 754.608 701.898C754.484 701.997 754.398 702.12 754.348 702.268C754.299 702.416 754.274 702.564 754.274 702.713ZM760.923 713.192H763.069V707.267C763.143 707.144 763.217 707.045 763.291 706.971C763.39 706.872 763.501 706.786 763.624 706.712C763.748 706.638 763.896 706.576 764.068 706.527C764.241 706.477 764.426 706.453 764.624 706.453C764.87 706.453 765.092 706.477 765.29 706.527C765.487 706.576 765.66 706.663 765.808 706.786C765.931 706.909 766.03 707.082 766.104 707.304C766.178 707.502 766.215 707.761 766.215 708.082V713.192H768.361V708.045C768.361 707.453 768.287 706.946 768.139 706.527C768.016 706.107 767.831 705.761 767.584 705.49C767.313 705.218 767.004 705.021 766.659 704.897C766.314 704.774 765.931 704.712 765.512 704.712C765.191 704.712 764.883 704.762 764.587 704.86C764.29 704.934 764.019 705.058 763.772 705.231C763.624 705.329 763.489 705.453 763.365 705.601C763.242 705.724 763.119 705.86 762.995 706.008L762.884 704.86H760.923V713.192ZM774.455 713.34C775.244 713.34 775.935 713.192 776.527 712.896C777.119 712.575 777.551 712.217 777.822 711.822L776.749 710.674C776.502 710.995 776.182 711.242 775.787 711.415C775.392 711.563 774.985 711.637 774.566 711.637C774.27 711.637 773.998 711.588 773.751 711.489C773.505 711.39 773.283 711.254 773.085 711.082C772.888 710.933 772.728 710.761 772.604 710.563C772.505 710.341 772.419 710.069 772.345 709.748V709.711H778.007V708.823C778.007 708.205 777.921 707.65 777.748 707.156C777.576 706.638 777.329 706.193 777.008 705.823C776.663 705.478 776.256 705.206 775.787 705.008C775.318 704.811 774.788 704.712 774.196 704.712C773.628 704.712 773.098 704.823 772.604 705.045C772.111 705.243 771.679 705.527 771.309 705.897C770.963 706.292 770.68 706.749 770.458 707.267C770.26 707.786 770.162 708.366 770.162 709.008V709.304C770.162 709.872 770.26 710.403 770.458 710.896C770.68 711.39 770.976 711.81 771.346 712.155C771.716 712.526 772.16 712.822 772.678 713.044C773.221 713.242 773.813 713.34 774.455 713.34ZM774.196 706.453C774.467 706.453 774.701 706.49 774.899 706.564C775.121 706.638 775.293 706.749 775.417 706.897C775.565 707.045 775.676 707.23 775.75 707.453C775.849 707.65 775.898 707.86 775.898 708.082V708.23H772.382C772.431 707.959 772.505 707.712 772.604 707.49C772.703 707.267 772.839 707.082 773.011 706.934C773.159 706.761 773.332 706.638 773.529 706.564C773.727 706.49 773.949 706.453 774.196 706.453Z" fill="black"></path></g><g clip-path="url(#clip2_209_2213)"><path d="M569.013 728.211H566.829C566.805 728.557 566.743 728.853 566.644 729.1C566.57 729.322 566.447 729.52 566.274 729.693C566.126 729.841 565.941 729.952 565.719 730.026C565.497 730.1 565.238 730.137 564.942 730.137C564.744 730.137 564.559 730.112 564.387 730.063C564.214 730.014 564.054 729.94 563.906 729.841C563.782 729.742 563.671 729.631 563.573 729.508C563.474 729.359 563.387 729.187 563.313 728.989C563.215 728.742 563.141 728.446 563.091 728.1C563.042 727.73 563.017 727.323 563.017 726.878V725.36C563.017 725.039 563.03 724.743 563.054 724.471C563.079 724.175 563.128 723.904 563.202 723.657C563.276 723.36 563.387 723.101 563.536 722.879C563.684 722.632 563.869 722.447 564.091 722.324C564.214 722.249 564.35 722.2 564.498 722.175C564.646 722.126 564.806 722.101 564.979 722.101C565.275 722.101 565.534 722.151 565.756 722.249C566.003 722.324 566.2 722.447 566.348 722.62C566.496 722.793 566.607 723.002 566.681 723.249C566.78 723.496 566.842 723.792 566.866 724.138H569.013C568.963 723.546 568.84 723.015 568.643 722.546C568.445 722.077 568.174 721.682 567.829 721.361C567.483 721.04 567.076 720.793 566.607 720.62C566.138 720.447 565.596 720.361 564.979 720.361C564.559 720.361 564.165 720.41 563.795 720.509C563.424 720.608 563.091 720.756 562.795 720.953C562.45 721.2 562.142 721.496 561.87 721.842C561.623 722.163 561.414 722.533 561.241 722.953C561.093 723.299 560.982 723.681 560.908 724.101C560.834 724.496 560.797 724.916 560.797 725.36V726.878C560.797 727.372 560.834 727.841 560.908 728.286C561.007 728.705 561.13 729.088 561.278 729.434C561.426 729.804 561.611 730.137 561.833 730.433C562.055 730.73 562.314 730.976 562.61 731.174C562.931 731.421 563.276 731.606 563.647 731.729C564.041 731.828 564.473 731.878 564.942 731.878C565.534 731.878 566.064 731.791 566.533 731.618C567.027 731.446 567.446 731.211 567.792 730.915C568.137 730.594 568.408 730.211 568.606 729.767C568.828 729.298 568.963 728.779 569.013 728.211ZM570.443 727.471V727.656C570.443 728.273 570.529 728.841 570.702 729.359C570.899 729.853 571.158 730.298 571.479 730.693C571.825 731.063 572.244 731.359 572.738 731.581C573.231 731.779 573.786 731.878 574.403 731.878C575.02 731.878 575.575 731.779 576.068 731.581C576.562 731.359 576.969 731.063 577.29 730.693C577.635 730.298 577.894 729.853 578.067 729.359C578.239 728.841 578.326 728.273 578.326 727.656V727.471C578.326 726.878 578.239 726.323 578.067 725.804C577.894 725.286 577.635 724.842 577.29 724.471C576.944 724.076 576.525 723.78 576.031 723.583C575.562 723.36 575.02 723.249 574.403 723.249C573.761 723.249 573.194 723.36 572.7 723.583C572.232 723.78 571.825 724.076 571.479 724.471C571.158 724.842 570.899 725.286 570.702 725.804C570.529 726.323 570.443 726.878 570.443 727.471ZM572.589 727.656V727.471C572.589 727.15 572.626 726.841 572.7 726.545C572.775 726.224 572.873 725.953 572.997 725.73C573.145 725.484 573.33 725.298 573.552 725.175C573.798 725.051 574.082 724.99 574.403 724.99C574.724 724.99 574.995 725.051 575.217 725.175C575.439 725.298 575.624 725.484 575.772 725.73C575.896 725.953 575.994 726.224 576.068 726.545C576.142 726.841 576.179 727.15 576.179 727.471V727.656C576.179 728.002 576.142 728.335 576.068 728.656C575.994 728.952 575.896 729.211 575.772 729.434C575.624 729.656 575.439 729.841 575.217 729.989C574.995 730.112 574.724 730.174 574.403 730.174C574.082 730.174 573.798 730.112 573.552 729.989C573.33 729.841 573.145 729.656 572.997 729.434C572.873 729.211 572.775 728.952 572.7 728.656C572.626 728.335 572.589 728.002 572.589 727.656ZM580.2 731.729H582.346V725.804C582.42 725.681 582.494 725.582 582.569 725.508C582.667 725.409 582.778 725.323 582.902 725.249C583.025 725.175 583.173 725.113 583.346 725.064C583.518 725.014 583.703 724.99 583.901 724.99C584.148 724.99 584.37 725.014 584.567 725.064C584.764 725.113 584.937 725.2 585.085 725.323C585.208 725.446 585.307 725.619 585.381 725.841C585.455 726.039 585.492 726.298 585.492 726.619V731.729H587.639V726.582C587.639 725.99 587.565 725.484 587.417 725.064C587.293 724.644 587.108 724.299 586.862 724.027C586.59 723.755 586.282 723.558 585.936 723.434C585.591 723.311 585.208 723.249 584.789 723.249C584.468 723.249 584.16 723.299 583.864 723.397C583.568 723.471 583.296 723.595 583.05 723.768C582.902 723.866 582.766 723.99 582.643 724.138C582.519 724.261 582.396 724.397 582.272 724.545L582.161 723.397H580.2V731.729ZM593.584 721.361H591.474V723.397H589.55V724.99H591.474V728.767C591.474 729.31 591.536 729.779 591.659 730.174C591.807 730.569 592.017 730.89 592.288 731.137C592.56 731.409 592.881 731.606 593.251 731.729C593.621 731.828 594.028 731.878 594.472 731.878C594.719 731.878 594.965 731.865 595.212 731.841C595.459 731.816 595.693 731.791 595.915 731.766C596.137 731.717 596.347 731.668 596.544 731.618C596.742 731.544 596.915 731.458 597.063 731.359L596.878 729.915C596.779 729.94 596.655 729.964 596.507 729.989C596.384 730.014 596.236 730.038 596.063 730.063C595.915 730.088 595.755 730.112 595.582 730.137C595.41 730.137 595.237 730.137 595.064 730.137C594.842 730.137 594.632 730.112 594.435 730.063C594.262 730.014 594.114 729.927 593.991 729.804C593.868 729.68 593.769 729.52 593.695 729.322C593.621 729.125 593.584 728.866 593.584 728.545V724.99H596.693V723.397H593.584V721.361ZM604.34 731.729H606.523V731.581C606.4 731.384 606.314 731.137 606.264 730.841C606.215 730.544 606.19 730.174 606.19 729.73V726.175C606.19 725.681 606.092 725.249 605.894 724.879C605.722 724.508 605.475 724.212 605.154 723.99C604.833 723.743 604.451 723.558 604.007 723.434C603.587 723.311 603.131 723.249 602.638 723.249C602.07 723.249 601.564 723.323 601.12 723.471C600.701 723.595 600.343 723.78 600.047 724.027C599.751 724.274 599.517 724.558 599.344 724.879C599.196 725.2 599.122 725.533 599.122 725.879H601.268C601.268 725.73 601.281 725.595 601.305 725.471C601.355 725.348 601.429 725.237 601.527 725.138C601.626 725.039 601.749 724.965 601.897 724.916C602.07 724.866 602.28 724.842 602.527 724.842C602.773 724.842 602.995 724.879 603.193 724.953C603.39 725.002 603.55 725.089 603.674 725.212C603.797 725.335 603.884 725.471 603.933 725.619C604.007 725.767 604.044 725.94 604.044 726.138V726.656H602.86C602.243 726.656 601.688 726.706 601.194 726.804C600.725 726.903 600.331 727.064 600.01 727.286C599.64 727.508 599.368 727.804 599.196 728.174C599.023 728.52 598.937 728.927 598.937 729.396C598.937 729.767 599.011 730.1 599.159 730.396C599.307 730.693 599.504 730.952 599.751 731.174C599.998 731.396 600.294 731.569 600.639 731.692C601.009 731.816 601.416 731.878 601.86 731.878C602.107 731.878 602.342 731.853 602.564 731.804C602.786 731.754 602.995 731.692 603.193 731.618C603.39 731.52 603.563 731.421 603.711 731.322C603.859 731.199 603.995 731.075 604.118 730.952C604.143 731.1 604.167 731.248 604.192 731.396C604.241 731.52 604.291 731.631 604.34 731.729ZM602.305 730.211C602.107 730.211 601.922 730.186 601.749 730.137C601.601 730.088 601.478 730.026 601.379 729.952C601.281 729.878 601.207 729.779 601.157 729.656C601.108 729.508 601.083 729.359 601.083 729.211C601.083 729.039 601.12 728.878 601.194 728.73C601.268 728.557 601.379 728.409 601.527 728.286C601.675 728.162 601.86 728.076 602.082 728.026C602.329 727.952 602.613 727.915 602.934 727.915H604.044V729.359C603.97 729.458 603.884 729.569 603.785 729.693C603.686 729.791 603.563 729.878 603.415 729.952C603.267 730.026 603.094 730.088 602.897 730.137C602.724 730.186 602.527 730.211 602.305 730.211ZM609.175 723.397V725.138H611.544V729.989H609.175V731.729H615.948V729.989H613.69V723.397H609.175ZM611.395 721.25C611.395 721.422 611.42 721.583 611.469 721.731C611.519 721.854 611.605 721.966 611.729 722.064C611.827 722.188 611.951 722.274 612.099 722.324C612.247 722.373 612.419 722.398 612.617 722.398C612.987 722.398 613.283 722.299 613.505 722.101C613.727 721.879 613.838 721.595 613.838 721.25C613.838 720.929 613.727 720.669 613.505 720.472C613.283 720.25 612.987 720.139 612.617 720.139C612.419 720.139 612.247 720.163 612.099 720.213C611.951 720.262 611.827 720.336 611.729 720.435C611.605 720.534 611.519 720.657 611.469 720.805C611.42 720.953 611.395 721.101 611.395 721.25ZM618.044 731.729H620.19V725.804C620.264 725.681 620.338 725.582 620.412 725.508C620.511 725.409 620.622 725.323 620.745 725.249C620.869 725.175 621.017 725.113 621.189 725.064C621.362 725.014 621.547 724.99 621.745 724.99C621.991 724.99 622.213 725.014 622.411 725.064C622.608 725.113 622.781 725.2 622.929 725.323C623.052 725.446 623.151 725.619 623.225 725.841C623.299 726.039 623.336 726.298 623.336 726.619V731.729H625.482V726.582C625.482 725.99 625.408 725.484 625.26 725.064C625.137 724.644 624.952 724.299 624.705 724.027C624.434 723.755 624.125 723.558 623.78 723.434C623.435 723.311 623.052 723.249 622.633 723.249C622.312 723.249 622.004 723.299 621.708 723.397C621.412 723.471 621.14 723.595 620.893 723.768C620.745 723.866 620.61 723.99 620.486 724.138C620.363 724.261 620.24 724.397 620.116 724.545L620.005 723.397H618.044V731.729ZM631.576 731.878C632.365 731.878 633.056 731.729 633.648 731.433C634.24 731.112 634.672 730.754 634.943 730.359L633.87 729.211C633.623 729.532 633.303 729.779 632.908 729.952C632.513 730.1 632.106 730.174 631.687 730.174C631.391 730.174 631.119 730.125 630.872 730.026C630.626 729.927 630.404 729.791 630.206 729.619C630.009 729.471 629.849 729.298 629.725 729.1C629.626 728.878 629.54 728.606 629.466 728.286V728.249H635.128V727.36C635.128 726.743 635.042 726.187 634.869 725.693C634.697 725.175 634.45 724.731 634.129 724.36C633.784 724.015 633.377 723.743 632.908 723.546C632.439 723.348 631.909 723.249 631.317 723.249C630.749 723.249 630.219 723.36 629.725 723.583C629.232 723.78 628.8 724.064 628.43 724.434C628.084 724.829 627.801 725.286 627.579 725.804C627.381 726.323 627.283 726.903 627.283 727.545V727.841C627.283 728.409 627.381 728.94 627.579 729.434C627.801 729.927 628.097 730.347 628.467 730.693C628.837 731.063 629.281 731.359 629.799 731.581C630.342 731.779 630.934 731.878 631.576 731.878ZM631.317 724.99C631.588 724.99 631.822 725.027 632.02 725.101C632.242 725.175 632.414 725.286 632.538 725.434C632.686 725.582 632.797 725.767 632.871 725.99C632.97 726.187 633.019 726.397 633.019 726.619V726.767H629.503C629.552 726.496 629.626 726.249 629.725 726.027C629.824 725.804 629.96 725.619 630.132 725.471C630.28 725.298 630.453 725.175 630.65 725.101C630.848 725.027 631.07 724.99 631.317 724.99ZM642.961 723.249C642.393 723.249 641.875 723.385 641.407 723.657C640.938 723.928 640.531 724.299 640.185 724.768V724.582L640.111 723.397H638.113V731.729H640.259V726.73C640.333 726.483 640.444 726.274 640.592 726.101C640.765 725.928 640.95 725.792 641.148 725.693C641.32 725.595 641.518 725.521 641.74 725.471C641.962 725.422 642.208 725.397 642.48 725.397C642.751 725.397 643.035 725.409 643.331 725.434C643.627 725.459 643.923 725.508 644.219 725.582L644.515 723.434C644.343 723.385 644.121 723.348 643.849 723.323C643.578 723.274 643.282 723.249 642.961 723.249ZM662.734 726.804V725.101H658.108V722.286H663.474V720.509H655.962V731.729H663.511V729.989H658.108V726.804H662.734ZM665.348 731.729H667.495V725.804C667.569 725.681 667.643 725.582 667.717 725.508C667.816 725.409 667.927 725.323 668.05 725.249C668.173 725.175 668.321 725.113 668.494 725.064C668.667 725.014 668.852 724.99 669.049 724.99C669.296 724.99 669.518 725.014 669.715 725.064C669.913 725.113 670.086 725.2 670.234 725.323C670.357 725.446 670.456 725.619 670.53 725.841C670.604 726.039 670.641 726.298 670.641 726.619V731.729H672.787V726.582C672.787 725.99 672.713 725.484 672.565 725.064C672.442 724.644 672.257 724.299 672.01 724.027C671.739 723.755 671.43 723.558 671.085 723.434C670.739 723.311 670.357 723.249 669.938 723.249C669.617 723.249 669.308 723.299 669.012 723.397C668.716 723.471 668.445 723.595 668.198 723.768C668.05 723.866 667.914 723.99 667.791 724.138C667.668 724.261 667.544 724.397 667.421 724.545L667.31 723.397H665.348V731.729ZM674.624 727.508V727.656C674.624 728.273 674.698 728.841 674.846 729.359C674.994 729.878 675.216 730.322 675.513 730.693C675.809 731.063 676.154 731.359 676.549 731.581C676.968 731.779 677.437 731.878 677.955 731.878C678.226 731.878 678.473 731.853 678.695 731.804C678.942 731.754 679.152 731.668 679.324 731.544C679.448 731.495 679.571 731.421 679.694 731.322C679.818 731.223 679.929 731.112 680.028 730.989V731.47C680.028 731.766 679.978 732.026 679.88 732.248C679.806 732.47 679.694 732.655 679.546 732.803C679.398 732.976 679.201 733.1 678.954 733.174C678.708 733.272 678.424 733.322 678.103 733.322C677.906 733.322 677.708 733.297 677.511 733.248C677.338 733.223 677.178 733.174 677.03 733.1C676.857 733.026 676.684 732.927 676.512 732.803C676.364 732.68 676.216 732.544 676.068 732.396L675.105 733.692C675.278 733.914 675.488 734.112 675.735 734.285C676.006 734.457 676.277 734.593 676.549 734.692C676.845 734.791 677.129 734.865 677.4 734.914C677.696 734.988 677.967 735.025 678.214 735.025C678.806 735.025 679.337 734.939 679.806 734.766C680.299 734.618 680.718 734.396 681.064 734.099C681.409 733.779 681.681 733.396 681.878 732.951C682.075 732.532 682.174 732.038 682.174 731.47V723.397H680.213L680.139 724.175C680.04 724.052 679.929 723.941 679.806 723.842C679.682 723.743 679.546 723.657 679.398 723.583C679.201 723.459 678.979 723.373 678.732 723.323C678.51 723.274 678.263 723.249 677.992 723.249C677.474 723.249 677.005 723.348 676.586 723.546C676.166 723.743 675.809 724.039 675.513 724.434C675.216 724.805 674.994 725.249 674.846 725.767C674.698 726.286 674.624 726.866 674.624 727.508ZM676.771 727.656V727.508C676.771 727.162 676.795 726.841 676.845 726.545C676.919 726.224 677.03 725.953 677.178 725.73C677.326 725.484 677.511 725.298 677.733 725.175C677.955 725.051 678.214 724.99 678.51 724.99C678.683 724.99 678.831 725.002 678.954 725.027C679.102 725.051 679.238 725.101 679.361 725.175C679.509 725.224 679.633 725.311 679.731 725.434C679.855 725.533 679.954 725.656 680.028 725.804V729.322C679.954 729.446 679.867 729.569 679.768 729.693C679.67 729.791 679.559 729.878 679.435 729.952C679.312 730.001 679.164 730.051 678.991 730.1C678.843 730.125 678.683 730.137 678.51 730.137C678.214 730.137 677.955 730.075 677.733 729.952C677.511 729.829 677.326 729.656 677.178 729.434C677.03 729.211 676.919 728.952 676.845 728.656C676.795 728.335 676.771 728.002 676.771 727.656ZM684.863 723.397V725.138H687.231V729.989H684.863V731.729H691.635V729.989H689.378V723.397H684.863ZM687.083 721.25C687.083 721.422 687.108 721.583 687.157 721.731C687.206 721.854 687.293 721.966 687.416 722.064C687.515 722.188 687.638 722.274 687.786 722.324C687.934 722.373 688.107 722.398 688.304 722.398C688.674 722.398 688.97 722.299 689.193 722.101C689.415 721.879 689.526 721.595 689.526 721.25C689.526 720.929 689.415 720.669 689.193 720.472C688.97 720.25 688.674 720.139 688.304 720.139C688.107 720.139 687.934 720.163 687.786 720.213C687.638 720.262 687.515 720.336 687.416 720.435C687.293 720.534 687.206 720.657 687.157 720.805C687.108 720.953 687.083 721.101 687.083 721.25ZM693.731 731.729H695.878V725.804C695.952 725.681 696.026 725.582 696.1 725.508C696.199 725.409 696.31 725.323 696.433 725.249C696.556 725.175 696.704 725.113 696.877 725.064C697.05 725.014 697.235 724.99 697.432 724.99C697.679 724.99 697.901 725.014 698.098 725.064C698.296 725.113 698.468 725.2 698.616 725.323C698.74 725.446 698.838 725.619 698.913 725.841C698.987 726.039 699.024 726.298 699.024 726.619V731.729H701.17V726.582C701.17 725.99 701.096 725.484 700.948 725.064C700.825 724.644 700.64 724.299 700.393 724.027C700.121 723.755 699.813 723.558 699.468 723.434C699.122 723.311 698.74 723.249 698.32 723.249C698 723.249 697.691 723.299 697.395 723.397C697.099 723.471 696.828 723.595 696.581 723.768C696.433 723.866 696.297 723.99 696.174 724.138C696.051 724.261 695.927 724.397 695.804 724.545L695.693 723.397H693.731V731.729ZM707.263 731.878C708.053 731.878 708.744 731.729 709.336 731.433C709.928 731.112 710.36 730.754 710.631 730.359L709.558 729.211C709.311 729.532 708.99 729.779 708.595 729.952C708.201 730.1 707.794 730.174 707.374 730.174C707.078 730.174 706.807 730.125 706.56 730.026C706.313 729.927 706.091 729.791 705.894 729.619C705.696 729.471 705.536 729.298 705.413 729.1C705.314 728.878 705.228 728.606 705.154 728.286V728.249H710.816V727.36C710.816 726.743 710.73 726.187 710.557 725.693C710.384 725.175 710.137 724.731 709.817 724.36C709.471 724.015 709.064 723.743 708.595 723.546C708.127 723.348 707.596 723.249 707.004 723.249C706.437 723.249 705.906 723.36 705.413 723.583C704.919 723.78 704.488 724.064 704.117 724.434C703.772 724.829 703.488 725.286 703.266 725.804C703.069 726.323 702.97 726.903 702.97 727.545V727.841C702.97 728.409 703.069 728.94 703.266 729.434C703.488 729.927 703.784 730.347 704.154 730.693C704.525 731.063 704.969 731.359 705.487 731.581C706.03 731.779 706.622 731.878 707.263 731.878ZM707.004 724.99C707.276 724.99 707.51 725.027 707.707 725.101C707.929 725.175 708.102 725.286 708.225 725.434C708.373 725.582 708.484 725.767 708.558 725.99C708.657 726.187 708.706 726.397 708.706 726.619V726.767H705.191C705.24 726.496 705.314 726.249 705.413 726.027C705.511 725.804 705.647 725.619 705.82 725.471C705.968 725.298 706.141 725.175 706.338 725.101C706.535 725.027 706.757 724.99 707.004 724.99Z" fill="black"></path></g><mask id="mask7_209_2213" style="mask-type:luminance" maskUnits="userSpaceOnUse" x="746" y="738" width="89" height="69"><path fill-rule="evenodd" clip-rule="evenodd" d="M746.713 738.014H834.697V806.12H746.713V738.014Z" fill="white"></path></mask><g mask="url(#mask7_209_2213)"><rect x="746.713" y="738.014" width="87.9843" height="68.1066" fill="url(#pattern6_209_2213)"></rect></g><path d="M753.08 826.343L755.745 827.194C755.326 828.676 754.635 829.774 753.673 830.49C752.735 831.206 751.538 831.564 750.083 831.564C748.282 831.564 746.801 830.947 745.642 829.713C744.482 828.478 743.902 826.799 743.902 824.676C743.902 822.405 744.482 820.652 745.642 819.418C746.826 818.159 748.368 817.529 750.268 817.529C751.921 817.529 753.266 818.023 754.302 819.011C754.919 819.578 755.387 820.405 755.708 821.492L752.969 822.158C752.821 821.442 752.488 820.887 751.97 820.492C751.477 820.072 750.86 819.862 750.12 819.862C749.108 819.862 748.294 820.233 747.677 820.973C747.06 821.689 746.752 822.849 746.752 824.454C746.752 826.182 747.06 827.417 747.677 828.157C748.294 828.873 749.096 829.231 750.083 829.231C750.798 829.231 751.415 828.997 751.933 828.528C752.476 828.059 752.858 827.33 753.08 826.343ZM757.512 824.639C757.512 823.257 757.722 822.096 758.141 821.158C758.462 820.467 758.882 819.85 759.4 819.307C759.943 818.739 760.535 818.332 761.176 818.085C762.015 817.714 762.99 817.529 764.1 817.529C766.098 817.529 767.69 818.159 768.874 819.418C770.083 820.652 770.687 822.368 770.687 824.565C770.687 826.762 770.083 828.478 768.874 829.713C767.69 830.947 766.111 831.564 764.137 831.564C762.114 831.564 760.498 830.947 759.289 829.713C758.104 828.478 757.512 826.787 757.512 824.639ZM760.362 824.528C760.362 826.084 760.707 827.256 761.398 828.046C762.114 828.836 763.014 829.231 764.1 829.231C765.21 829.231 766.111 828.836 766.801 828.046C767.492 827.256 767.838 826.071 767.838 824.491C767.838 822.936 767.492 821.776 766.801 821.01C766.135 820.245 765.235 819.862 764.1 819.862C762.99 819.862 762.089 820.257 761.398 821.047C760.707 821.813 760.362 822.973 760.362 824.528ZM772.843 831.342V817.751H775.508L781.059 826.824V817.751H783.613V831.342H780.874L775.397 822.491V831.342H772.843ZM789.562 831.342V820.047H785.528V817.751H796.297V820.047H792.3V831.342H789.562ZM808.908 831.342H805.91L804.726 828.268H799.323L798.213 831.342H795.289L800.581 817.751H803.468L808.908 831.342ZM803.875 825.972L801.987 820.936L800.174 825.972H803.875ZM810.268 831.342V817.751H813.007V831.342H810.268ZM815.644 831.342V817.751H818.308L823.859 826.824V817.751H826.413V831.342H823.674L818.197 822.491V831.342H815.644ZM829.291 831.342V817.751H839.357V820.047H832.029V823.084H838.839V825.343H832.029V829.046H839.616V831.342H829.291ZM841.966 831.342V817.751H847.702C849.158 817.751 850.207 817.875 850.848 818.122C851.514 818.369 852.045 818.813 852.439 819.455C852.834 820.072 853.032 820.776 853.032 821.566C853.032 822.578 852.735 823.417 852.143 824.084C851.551 824.75 850.663 825.17 849.479 825.343C850.071 825.689 850.552 826.071 850.922 826.491C851.317 826.911 851.835 827.639 852.476 828.676L854.142 831.342H850.885L848.887 828.379C848.196 827.318 847.715 826.651 847.443 826.38C847.197 826.108 846.925 825.923 846.629 825.824C846.333 825.726 845.877 825.676 845.26 825.676H844.705V831.342H841.966ZM844.705 823.491H846.703C848.035 823.491 848.862 823.442 849.183 823.343C849.503 823.22 849.75 823.022 849.923 822.751C850.12 822.479 850.219 822.146 850.219 821.751C850.219 821.282 850.096 820.911 849.849 820.64C849.602 820.368 849.257 820.196 848.813 820.121C848.591 820.072 847.924 820.047 846.814 820.047H844.705V823.491Z" fill="black"></path><path d="M747.456 855.041V843.747H743.422V841.451H754.191V843.747H750.194V855.041H747.456ZM755.061 848.339C755.061 846.956 755.271 845.796 755.69 844.858C756.011 844.166 756.43 843.549 756.949 843.006C757.491 842.438 758.083 842.031 758.725 841.784C759.564 841.414 760.538 841.229 761.649 841.229C763.647 841.229 765.238 841.858 766.423 843.117C767.632 844.351 768.236 846.067 768.236 848.264C768.236 850.462 767.632 852.177 766.423 853.412C765.238 854.646 763.659 855.263 761.686 855.263C759.662 855.263 758.046 854.646 756.838 853.412C755.653 852.177 755.061 850.486 755.061 848.339ZM757.911 848.227C757.911 849.783 758.256 850.955 758.947 851.745C759.662 852.535 760.563 852.93 761.649 852.93C762.759 852.93 763.659 852.535 764.35 851.745C765.041 850.955 765.386 849.77 765.386 848.19C765.386 846.635 765.041 845.475 764.35 844.709C763.684 843.944 762.784 843.561 761.649 843.561C760.538 843.561 759.638 843.956 758.947 844.746C758.256 845.512 757.911 846.672 757.911 848.227ZM769.8 848.339C769.8 846.956 770.009 845.796 770.429 844.858C770.75 844.166 771.169 843.549 771.687 843.006C772.23 842.438 772.822 842.031 773.464 841.784C774.302 841.414 775.277 841.229 776.387 841.229C778.386 841.229 779.977 841.858 781.161 843.117C782.37 844.351 782.975 846.067 782.975 848.264C782.975 850.462 782.37 852.177 781.161 853.412C779.977 854.646 778.398 855.263 776.424 855.263C774.401 855.263 772.785 854.646 771.576 853.412C770.392 852.177 769.8 850.486 769.8 848.339ZM772.649 848.227C772.649 849.783 772.995 850.955 773.686 851.745C774.401 852.535 775.302 852.93 776.387 852.93C777.498 852.93 778.398 852.535 779.089 851.745C779.78 850.955 780.125 849.77 780.125 848.19C780.125 846.635 779.78 845.475 779.089 844.709C778.423 843.944 777.522 843.561 776.387 843.561C775.277 843.561 774.377 843.956 773.686 844.746C772.995 845.512 772.649 846.672 772.649 848.227ZM785.168 855.041V841.562H787.906V852.745H794.716V855.041H785.168ZM796.705 855.041V841.451H799.444V847.487L804.995 841.451H808.659L803.552 846.746L808.955 855.041H805.402L801.664 848.672L799.444 850.931V855.041H796.705ZM810.278 855.041V841.451H813.017V855.041H810.278ZM818.688 855.041V843.747H814.654V841.451H825.424V843.747H821.427V855.041H818.688Z" fill="black"></path><path fill-rule="evenodd" clip-rule="evenodd" d="M470.246 550.791L595.835 425.125H1010.2L884.612 550.791H470.246Z" fill="#D8E7F5" fill-opacity="0.5"></path><path d="M181.928 47.0703L181.359 549.773" stroke="black" stroke-miterlimit="10" stroke-linejoin="round"></path><path fill-rule="evenodd" clip-rule="evenodd" d="M56.2422 173.059H470.608V550.057H56.2422V173.059Z" fill="black" fill-opacity="0.59"></path><path fill-rule="evenodd" clip-rule="evenodd" d="M470.607 172.475L596.197 46.8086V423.807L470.607 549.473V172.475Z" fill="black" fill-opacity="0.59"></path><path fill-rule="evenodd" clip-rule="evenodd" d="M56.2422 172.416L181.831 46.75H596.198L470.608 172.416H56.2422Z" fill="#333333" fill-opacity="0.59"></path><path d="M56.2422 172.648L181.831 46.9824H596.198M56.2422 172.648V549.646H470.608M56.2422 172.648H470.608M596.198 46.9824V423.98L470.608 549.646M596.198 46.9824L470.608 172.648M470.608 549.646V172.648" stroke="black" stroke-miterlimit="10" stroke-linejoin="round"></path><mask id="mask8_209_2213" style="mask-type:luminance" maskUnits="userSpaceOnUse" x="225" y="394" width="95" height="92"><path fill-rule="evenodd" clip-rule="evenodd" d="M225.805 394.016H319.378V485.635H225.805V394.016Z" fill="white"></path></mask><g mask="url(#mask8_209_2213)"><rect x="225.805" y="394.016" width="93.5729" height="91.6189" fill="url(#pattern7_209_2213)"></rect></g><mask id="mask9_209_2213" style="mask-type:luminance" maskUnits="userSpaceOnUse" x="96" y="393" width="94" height="94"><path fill-rule="evenodd" clip-rule="evenodd" d="M96.0215 393.008H189.594V486.638H96.0215V393.008Z" fill="white"></path></mask><g mask="url(#mask9_209_2213)"><rect x="96.0215" y="393.008" width="93.5724" height="93.6301" fill="url(#pattern8_209_2213)"></rect></g><mask id="mask10_209_2213" style="mask-type:luminance" maskUnits="userSpaceOnUse" x="348" y="354" width="89" height="133"><path fill-rule="evenodd" clip-rule="evenodd" d="M348.771 354.609H436.757V486.735H348.771V354.609Z" fill="white"></path></mask><g mask="url(#mask10_209_2213)"><rect x="348.771" y="354.609" width="87.9856" height="132.125" fill="url(#pattern9_209_2213)"></rect></g><path fill-rule="evenodd" clip-rule="evenodd" d="M471.076 173.573H885.442V550.903H471.076V173.573Z" fill="black" fill-opacity="0.59"></path><path fill-rule="evenodd" clip-rule="evenodd" d="M885.443 172.834L1011.03 47.168V424.166L885.443 549.832V172.834Z" fill="black" fill-opacity="0.59"></path><path fill-rule="evenodd" clip-rule="evenodd" d="M471.076 172.834L596.665 47.168H1011.03L885.442 172.834H471.076Z" fill="#333333" fill-opacity="0.59"></path><path d="M471.076 173.066L596.518 47.0115L1011.03 47.4M471.076 173.066V550.064H885.442M471.076 173.066H885.442M1011.03 47.4V424.398L885.442 550.064M1011.03 47.4L948.237 110.233L885.442 173.066M885.442 550.064V173.066" stroke="black" stroke-miterlimit="10" stroke-linejoin="round"></path><mask id="mask11_209_2213" style="mask-type:luminance" maskUnits="userSpaceOnUse" x="549" y="279" width="133" height="134"><path fill-rule="evenodd" clip-rule="evenodd" d="M549.115 279.924H681.16V412.049H549.115V279.924Z" fill="white"></path></mask><g mask="url(#mask11_209_2213)"><rect x="549.115" y="279.924" width="132.045" height="132.125" fill="url(#pattern10_209_2213)"></rect></g><mask id="mask12_209_2213" style="mask-type:luminance" maskUnits="userSpaceOnUse" x="724" y="282" width="119" height="128"><path fill-rule="evenodd" clip-rule="evenodd" d="M724.066 282.57H842.435V409.423H724.066V282.57Z" fill="white"></path></mask><g mask="url(#mask12_209_2213)"><rect x="724.066" y="282.57" width="118.368" height="126.853" fill="url(#pattern11_209_2213)"></rect></g><mask id="mask13_209_2213" style="mask-type:luminance" maskUnits="userSpaceOnUse" x="64" y="210" width="152" height="152"><path fill-rule="evenodd" clip-rule="evenodd" d="M64.0801 210.357H215.394V361.764H64.0801V210.357Z" fill="white"></path></mask><g mask="url(#mask13_209_2213)"><rect x="64.3789" y="210.462" width="151.279" height="151.31" fill="url(#pattern12_209_2213)"></rect></g><path d="M258.521 233.529L243.273 280.077H230.949L251.822 223.938H259.631L258.521 233.529ZM271.215 280.077L255.893 233.529L254.672 223.938H262.555L283.538 280.077H271.215ZM270.511 259.191V268.227H240.868V259.191H270.511ZM301.048 223.938V280.077H289.501V223.938H301.048ZM335.09 223.938L314.514 284.891H306.261L326.875 223.938H335.09ZM346.398 223.938H356.205L370.602 265.153L385.035 223.938H394.805L374.525 280.077H366.679L346.398 223.938ZM341.106 223.938H350.876L352.653 264.116V280.077H341.106V223.938ZM390.327 223.938H400.135V280.077H388.551V264.116L390.327 223.938ZM446.3 271.041V280.077H418.062V271.041H446.3ZM421.8 223.938V280.077H410.217V223.938H421.8Z" fill="#74C0FC"></path><path fill-rule="evenodd" clip-rule="evenodd" d="M270.373 928.266C270.373 816.565 360.585 726.014 471.868 726.014C525.308 726.014 576.559 747.322 614.346 785.252C652.134 823.182 673.363 874.625 673.363 928.266C673.363 1039.97 583.15 1130.52 471.868 1130.52C360.585 1130.52 270.373 1039.97 270.373 928.266Z" fill="black" fill-opacity="0.59"></path><path fill-rule="evenodd" clip-rule="evenodd" d="M270.373 928.266C270.373 816.565 360.585 726.014 471.868 726.014C525.308 726.014 576.559 747.322 614.346 785.252C652.134 823.182 673.363 874.625 673.363 928.266C673.363 1039.97 583.15 1130.52 471.868 1130.52C360.585 1130.52 270.373 1039.97 270.373 928.266Z" stroke="black" stroke-width="5" stroke-miterlimit="10" stroke-linejoin="round"></path><path d="M489.059 948.199H642.101V998.983H489.059V948.199Z" fill="white"></path><mask id="mask14_209_2213" style="mask-type:luminance" maskUnits="userSpaceOnUse" x="489" y="948" width="154" height="51"><path d="M489.059 948.199H642.101V998.983H489.059V948.199Z" fill="white"></path></mask><g mask="url(#mask14_209_2213)"><rect x="489.059" y="948.199" width="153.043" height="50.7836" fill="url(#pattern13_209_2213)"></rect></g><path fill-rule="evenodd" clip-rule="evenodd" d="M485.506 944.645H645.654V1002.54H485.506V944.645Z" stroke="black" stroke-width="3" stroke-miterlimit="10" stroke-linejoin="round"></path><mask id="mask15_209_2213" style="mask-type:luminance" maskUnits="userSpaceOnUse" x="325" y="792" width="301" height="111"><path fill-rule="evenodd" clip-rule="evenodd" d="M325.758 792.859H625.852V902.284H325.758V792.859Z" fill="white"></path></mask><g mask="url(#mask15_209_2213)"><rect x="325.758" y="792.859" width="300.094" height="109.424" fill="url(#pattern14_209_2213)"></rect></g><mask id="mask16_209_2213" style="mask-type:luminance" maskUnits="userSpaceOnUse" x="306" y="934" width="159" height="85"><path fill-rule="evenodd" clip-rule="evenodd" d="M306.531 934.426H464.914V1018.55H306.531V934.426Z" fill="white"></path></mask><g mask="url(#mask16_209_2213)"><rect x="306.531" y="934.426" width="158.383" height="84.1262" fill="url(#pattern15_209_2213)"></rect></g><mask id="mask17_209_2213" style="mask-type:luminance" maskUnits="userSpaceOnUse" x="427" y="1013" width="94" height="95"><path fill-rule="evenodd" clip-rule="evenodd" d="M427.117 1013.86H520.69V1107.49H427.117V1013.86Z" fill="white"></path></mask><g mask="url(#mask17_209_2213)"><rect x="427.117" y="1013.86" width="93.5729" height="93.6296" fill="url(#pattern16_209_2213)"></rect></g></g></g><defs><pattern id="pattern0_209_2213" patternContentUnits="objectBoundingBox" width="1" height="1"><use xlink:href="#image0_209_2213" transform="scale(0.000488281 0.00204918)"></use></pattern><pattern id="pattern1_209_2213" patternContentUnits="objectBoundingBox" width="1" height="1"><use xlink:href="#image1_209_2213" transform="scale(0.000488281 0.000738552)"></use></pattern><pattern id="pattern2_209_2213" patternContentUnits="objectBoundingBox" width="1" height="1"><use xlink:href="#image2_209_2213" transform="scale(0.000488281 0.000740192)"></use></pattern><pattern id="pattern3_209_2213" patternContentUnits="objectBoundingBox" width="1" height="1"><use xlink:href="#image3_209_2213" transform="scale(0.00862069 0.00892857)"></use></pattern><pattern id="pattern4_209_2213" patternContentUnits="objectBoundingBox" width="1" height="1"><use xlink:href="#image4_209_2213" transform="scale(0.00145138 0.00187617)"></use></pattern><pattern id="pattern5_209_2213" patternContentUnits="objectBoundingBox" width="1" height="1"><use xlink:href="#image5_209_2213" transform="scale(0.000488281 0.000618429)"></use></pattern><pattern id="pattern6_209_2213" patternContentUnits="objectBoundingBox" width="1" height="1"><use xlink:href="#image4_209_2213" transform="scale(0.00145138 0.00187617)"></use></pattern><pattern id="pattern7_209_2213" patternContentUnits="objectBoundingBox" width="1" height="1"><use xlink:href="#image6_209_2213" transform="scale(0.00102041 0.00104275)"></use></pattern><pattern id="pattern8_209_2213" patternContentUnits="objectBoundingBox" width="1" height="1"><use xlink:href="#image7_209_2213" transform="scale(0.00125)"></use></pattern><pattern id="pattern9_209_2213" patternContentUnits="objectBoundingBox" width="1" height="1"><use xlink:href="#image8_209_2213" transform="scale(0.00149477 0.000996016)"></use></pattern><pattern id="pattern10_209_2213" patternContentUnits="objectBoundingBox" width="1" height="1"><use xlink:href="#image9_209_2213" transform="scale(0.0113636)"></use></pattern><pattern id="pattern11_209_2213" patternContentUnits="objectBoundingBox" width="1" height="1"><use xlink:href="#image10_209_2213" transform="scale(0.00186916 0.0017452)"></use></pattern><pattern id="pattern12_209_2213" patternContentUnits="objectBoundingBox" width="1" height="1"><use xlink:href="#image11_209_2213" transform="scale(0.00195312)"></use></pattern><pattern id="pattern13_209_2213" patternContentUnits="objectBoundingBox" width="1" height="1"><use xlink:href="#image12_209_2213" transform="scale(0.00257069 0.00775194)"></use></pattern><pattern id="pattern14_209_2213" patternContentUnits="objectBoundingBox" width="1" height="1"><use xlink:href="#image13_209_2213" transform="scale(0.000564972 0.00155039)"></use></pattern><pattern id="pattern15_209_2213" patternContentUnits="objectBoundingBox" width="1" height="1"><use xlink:href="#image14_209_2213" transform="scale(0.000833333 0.00156986)"></use></pattern><pattern id="pattern16_209_2213" patternContentUnits="objectBoundingBox" width="1" height="1"><use xlink:href="#image15_209_2213" transform="scale(0.00125)"></use></pattern><clipPath id="clip0_209_2213"><rect width="1064" height="1330" fill="white" transform="translate(0.207031)"></rect></clipPath><clipPath id="clip1_209_2213"><rect width="85" height="14" fill="white" transform="translate(628 702)"></rect></clipPath><clipPath id="clip2_209_2213"><rect width="56" height="15" fill="white" transform="translate(655 720)"></rect></clipPath><image id="image0_209_2213" width="2048" height="488" preserveAspectRatio="none"></image><image id="image1_209_2213" width="2048" height="1354" preserveAspectRatio="none"></image><image id="image2_209_2213" width="2048" height="1351" preserveAspectRatio="none"></image><image id="image3_209_2213" width="116" height="112" preserveAspectRatio="none"></image><image id="image4_209_2213" width="689" height="533" preserveAspectRatio="none"></image><image id="image5_209_2213" width="2048" height="1617" preserveAspectRatio="none"></image><image id="image6_209_2213" width="980" height="959" preserveAspectRatio="none"></image><image id="image7_209_2213" width="800" height="800" preserveAspectRatio="none"></image><image id="image8_209_2213" width="669" height="1004" preserveAspectRatio="none"></image><image id="image9_209_2213" width="88" height="88" preserveAspectRatio="none"></image><image id="image10_209_2213" width="535" height="573" preserveAspectRatio="none"></image><image id="image11_209_2213" width="512" height="512" preserveAspectRatio="none"></image><image id="image12_209_2213" width="389" height="129" preserveAspectRatio="none"></image><image id="image13_209_2213" width="1770" height="645" preserveAspectRatio="none"></image><image id="image14_209_2213" width="1200" height="637" preserveAspectRatio="none"></image><image id="image15_209_2213" width="800" height="800" preserveAspectRatio="none"></image></defs></svg>