<svg xmlns:inkscape="http://www.inkscape.org/namespaces/inkscape" xmlns:sodipodi="http://sodipodi.sourceforge.net/DTD/sodipodi-0.dtd" xmlns:xlink="http://www.w3.org/1999/xlink" xmlns="http://www.w3.org/2000/svg" xmlns:svg="http://www.w3.org/2000/svg" id="katman_1" x="0px" y="0px" viewBox="0 0 459.61996 455.77753" xml:space="preserve" sodipodi:docname="kubeflow-ns.svg" width="459.61996" height="455.77753" inkscape:version="1.4 (e7c3feb100, 2024-10-09)"><defs id="defs11"></defs><style type="text/css" id="style1">	.st0{fill:#4279F4;}	.st1{fill:#0028AA;}	.st2{fill:#014BD1;}	.st3{fill:#BEDCFF;}	.st4{fill:#6CA1FF;}	.st5{fill:#A1C3FF;}			.st6{clip-path:url(#SVGID_00000151505652981712344040000015851399941536428971_);fill:none;stroke:#4279F4;stroke-width:5.3126;stroke-miterlimit:10;}			.st7{clip-path:url(#SVGID_00000140732803956877361720000005913103859438536860_);fill:none;stroke:#0028AA;stroke-width:5.3126;stroke-miterlimit:10;}</style><g id="g11" transform="translate(-169.8,-72)">	<path class="st0" d="m 329,175.2 6.8,169.5 122.4,-156.3 c 3.9,-4.9 11,-5.8 15.9,-1.8 L 550.5,247.9 525.6,139 Z m 0,0" id="path1"></path>	<path class="st1" d="M 340,375.8 H 448.6 L 382,322.3 Z m 0,0" id="path2"></path>	<path class="st2" d="m 468.9,211.3 -73,93.2 77.8,62.4 73.8,-92.6 z m 0,0" id="path3"></path>	<path class="st3" d="m 308.5,158.8 v 0 l 64.2,-80.6 -103.6,49.9 -25.6,112.1 z m 0,0" id="path4"></path>	<path class="st4" d="m 245,274.6 68.8,86.3 -6.6,-164.3 z m 0,0" id="path5"></path>	<path class="st5" d="M 505.7,119.7 406.7,72 345,149.3 Z m 0,0" id="path6"></path>	<path class="st0" d="m 172.4,523.6 v -74.3 h 9.5 v 38.9 l 34,-38.9 h 10.6 l -28.9,32.7 31.5,41.6 H 217.9 L 191.7,489 182,500 v 23.5 h -9.6 z m 66.5,-16.3 v -36.9 h 9 v 37.2 c -0.1,2.9 1.4,5.5 3.9,7 5.6,3.3 12.6,3.3 18.3,0 2.5,-1.4 4,-4.1 3.9,-7 v -37.2 h 9 v 36.8 c 0.2,5.2 -2.4,10.2 -6.8,13.1 -9.2,6.3 -21.3,6.3 -30.5,0 -4.4,-2.8 -7,-7.8 -6.8,-13 z m 59.5,16.3 v -79.7 h 9 v 27.9 c 5,-1.8 10.2,-2.8 15.5,-2.9 3.6,-0.1 7.1,0.7 10.3,2.3 2.8,1.4 5.2,3.6 6.9,6.2 1.7,2.6 2.9,5.4 3.7,8.4 0.8,3 1.2,6.1 1.2,9.3 0,9.3 -2.4,16.4 -7.3,21.2 -4.8,4.8 -12.5,7.2 -22.9,7.2 h -16.4 z m 9,-8.1 h 7.5 c 7.5,0 12.9,-1.6 16.1,-4.9 3.3,-3.3 4.9,-8.5 5,-15.8 0.1,-4.4 -1.1,-8.7 -3.3,-12.5 -2.1,-3.5 -5.9,-5.6 -10,-5.3 -5.2,-0.1 -10.5,0.7 -15.4,2.6 z m 48.9,-18.6 c 0,-8.5 2.3,-15.3 6.8,-20.4 4.5,-5.1 11.1,-7.9 17.9,-7.6 14.8,0 22.2,10.4 22.2,31.3 h -37.9 c 0.3,4.3 2,8.4 4.8,11.7 2.9,3.4 7.2,5.2 13.1,5.1 6,0.2 12,-1 17.5,-3.3 v 8.3 c -5.2,2 -10.8,3.1 -16.4,3.1 -4.4,0.1 -8.7,-0.7 -12.8,-2.3 -3.4,-1.3 -6.4,-3.5 -8.8,-6.2 -2.2,-2.6 -3.9,-5.7 -5,-8.9 -0.9,-3.5 -1.4,-7.1 -1.4,-10.8 z m 9.4,-3.5 h 28.7 c -0.3,-4.2 -1.6,-8.3 -3.9,-11.8 -2.1,-3 -5.6,-4.8 -9.3,-4.6 -3.9,-0.1 -7.7,1.6 -10.3,4.5 -3.1,3.3 -4.9,7.5 -5.2,11.9 z m 0,0" id="path7"></path>	<g id="g8">		<defs id="defs7">			<rect id="SVGID_1_" x="169.8" y="72" width="460.39999" height="456"></rect>		</defs>		<clipPath id="SVGID_00000024684908370752010650000013768090432584037515_">			<use xlink:href="#SVGID_1_" style="overflow:visible" id="use7"></use>		</clipPath>					<path style="fill:none;stroke:#4279f4;stroke-width:5.3126;stroke-miterlimit:10" d="m 172.4,523.6 v -74.3 h 9.5 v 38.9 l 34,-38.9 h 10.6 l -28.9,32.7 31.5,41.6 H 217.9 L 191.7,489 182,500 v 23.5 h -9.6 z m 66.5,-16.3 v -36.9 h 9 v 37.2 c -0.1,2.9 1.4,5.5 3.9,7 5.6,3.3 12.6,3.3 18.3,0 2.5,-1.4 4,-4.1 3.9,-7 v -37.2 h 9 v 36.8 c 0.2,5.2 -2.4,10.2 -6.8,13.1 -9.2,6.3 -21.3,6.3 -30.5,0 -4.4,-2.8 -7,-7.8 -6.8,-13 z m 59.5,16.3 v -79.7 h 9 v 27.9 c 5,-1.8 10.2,-2.8 15.5,-2.9 3.6,-0.1 7.1,0.7 10.3,2.3 2.8,1.4 5.2,3.6 6.9,6.2 1.7,2.6 2.9,5.4 3.7,8.4 0.8,3 1.2,6.1 1.2,9.3 0,9.3 -2.4,16.4 -7.3,21.2 -4.8,4.8 -12.5,7.2 -22.9,7.2 h -16.4 z m 9,-8.1 h 7.5 c 7.5,0 12.9,-1.6 16.1,-4.9 3.3,-3.3 4.9,-8.5 5,-15.8 0.1,-4.4 -1.1,-8.7 -3.3,-12.5 -2.1,-3.5 -5.9,-5.6 -10,-5.3 -5.2,-0.1 -10.5,0.7 -15.4,2.6 z m 48.9,-18.6 c 0,-8.5 2.3,-15.3 6.8,-20.4 4.5,-5.1 11.1,-7.9 17.9,-7.6 14.8,0 22.2,10.4 22.2,31.3 h -37.9 c 0.3,4.3 2,8.4 4.8,11.7 2.9,3.4 7.2,5.2 13.1,5.1 6,0.2 12,-1 17.5,-3.3 v 8.3 c -5.2,2 -10.8,3.1 -16.4,3.1 -4.4,0.1 -8.7,-0.7 -12.8,-2.3 -3.4,-1.3 -6.4,-3.5 -8.8,-6.2 -2.2,-2.6 -3.9,-5.7 -5,-8.9 -0.9,-3.5 -1.4,-7.1 -1.4,-10.8 z m 9.4,-3.5 h 28.7 c -0.3,-4.2 -1.6,-8.3 -3.9,-11.8 -2.1,-3 -5.6,-4.8 -9.3,-4.6 -3.9,-0.1 -7.7,1.6 -10.3,4.5 -3.1,3.3 -4.9,7.5 -5.2,11.9 z m 0,0" clip-path="url(#SVGID_00000024684908370752010650000013768090432584037515_)" id="path8"></path>	</g>	<path class="st1" d="m 414.4,478.6 v -8.1 h 8.3 v -12.6 c -0.2,-3.7 1.2,-7.4 3.8,-10 2.5,-2.5 5.9,-3.9 9.4,-3.8 H 449 v 8.2 h -8.3 c -3.7,0 -6.1,0.7 -7.3,2.2 -1.2,1.5 -1.8,4.2 -1.8,8.3 v 7.7 h 14 v 8.1 h -14 v 45 h -9 v -45 z m 46.4,45 v -79.7 h 9 v 79.7 z m 31.7,-6.6 c -10.3,-9.8 -12.2,-25.5 -4.6,-37.5 7.7,-12 22.7,-16.8 35.9,-11.6 13.2,5.2 20.8,19.1 18.2,33.1 -2.7,14 -14.8,24.1 -29.1,24.1 -7.5,0.3 -15,-2.6 -20.4,-8.1 z m 6.4,-34.3 c -7.1,8.2 -7.1,20.4 0,28.6 7.8,7.7 20.4,7.7 28.2,0 7.1,-8.2 7.1,-20.4 0,-28.6 -7.8,-7.7 -20.4,-7.7 -28.2,0 z m 50.2,-12.3 h 9.5 l 12.1,42 12.3,-42 h 8.9 l 12.2,42.1 12.2,-42.1 h 9.5 l -16.7,53.1 h -10.2 l -11.3,-40.8 -11.2,40.8 h -10.7 z m 0,0" id="path9"></path>	<g id="g10">		<defs id="defs9">			<rect id="SVGID_00000085230472506434434580000001608029978330199465_" x="169.8" y="72" width="460.39999" height="456"></rect>		</defs>		<clipPath id="SVGID_00000010306900198246888990000000641100890585240501_">			<use xlink:href="#SVGID_00000085230472506434434580000001608029978330199465_" style="overflow:visible" id="use9"></use>		</clipPath>					<path style="fill:none;stroke:#0028aa;stroke-width:5.3126;stroke-miterlimit:10" d="m 414.4,478.6 v -8.1 h 8.3 v -12.6 c -0.2,-3.7 1.2,-7.4 3.8,-10 2.5,-2.5 5.9,-3.9 9.4,-3.8 H 449 v 8.2 h -8.3 c -3.7,0 -6.1,0.7 -7.3,2.2 -1.2,1.5 -1.8,4.2 -1.8,8.3 v 7.7 h 14 v 8.1 h -14 v 45 h -9 v -45 z m 46.4,45 v -79.7 h 9 v 79.7 z m 31.7,-6.6 c -10.3,-9.8 -12.2,-25.5 -4.6,-37.5 7.7,-12 22.7,-16.8 35.9,-11.6 13.2,5.2 20.8,19.1 18.2,33.1 -2.7,14 -14.8,24.1 -29.1,24.1 -7.5,0.3 -15,-2.6 -20.4,-8.1 z m 6.4,-34.3 c -7.1,8.2 -7.1,20.4 0,28.6 7.8,7.7 20.4,7.7 28.2,0 7.1,-8.2 7.1,-20.4 0,-28.6 -7.8,-7.7 -20.4,-7.7 -28.2,0 z m 50.2,-12.3 h 9.5 l 12.1,42 12.3,-42 h 8.9 l 12.2,42.1 12.2,-42.1 h 9.5 l -16.7,53.1 h -10.2 l -11.3,-40.8 -11.2,40.8 h -10.7 z m 0,0" clip-path="url(#SVGID_00000010306900198246888990000000641100890585240501_)" id="path10"></path>	</g></g></svg>