<?xml version="1.0" standalone="no"?>
<!DOCTYPE svg PUBLIC "-//W3C//DTD SVG 20010904//EN"
  "http://www.w3.org/TR/2001/REC-SVG-20010904/DTD/svg10.dtd">
<svg width="512" height="512">
<g style="fill:black;fill-opacity:1;stroke:none;stroke-width:1;stroke-opacity:1;fill-rule:nonzero;">
<g style="fill:#60b0f4;fill-opacity:1;stroke-width:1;fill-rule:evenodd;clip-rule:evenodd;">
  <path d="M499.875 9.89C224 9.89 0 229.765 0 501.203 0 772.64 224 992.514 499.875 992.514 776.063 992.515 1000 772.64 1000 501.202 1000 229.765 776 9.89 499.875 9.89Zm0 910.063c-15.125 0-30.125-.813-44.875-2.313V503.015c0-21.313-4.25-41.688-13.125-60.563-8.563-19.187-20.125-36-34.813-50.375-14.625-14.375-31.75-25.812-51.562-34.5-19.813-8.375-40.563-12.625-62.25-12.625-21.688 0-42.438 3.875-61.938 12.313-19.5 8.375-36.625 19.5-50.937 33.875-14.625 14.375-26.563 31.188-35.063 50.375-8.562 19.188-12.812 39.875-12.812 61.5 0 21.875 3.938 42.313 12.188 61.5 8.25 19.188 19.5 36 33.875 50.375 14.312 14.375 31.437 25.813 51.25 33.875 19.812 8.375 40.875 12.625 63.5 12.625 28.062 0 59.812-9 95.812-26.688v270.813c-181.313-48-314.938-210.75-314.938-404.313 0-231.25 190.75-418.75 425.688-418.75 12.125 0 24.125.625 36 1.625V505.39c0 21.313 4.563 41.688 13.125 60.875 8.563 19.188 20.125 36 34.813 50.375 14.625 14.125 32.062 25.813 51.562 34.188 19.813 8.375 40.563 12.875 62.25 12.875 21.688 0 42.438-4.188 61.938-12.625 19.5-8.375 36.625-19.5 51.25-33.875s26.25-31.188 34.812-50.375c8.875-19.188 13.125-39.563 13.125-61.5 0-21.875-4.25-42.313-12.188-61.5-8.25-19.188-19.5-36-34.187-50.375-14.313-14.375-31.438-25.813-51.25-33.875-19.5-8.375-40.875-12.625-63.5-12.625-27.75 0-59.813 9-95.813 27V94.577c186.063 44.937 324.063 209.874 324.063 406.562 0 231.313-190.75 418.813-426 418.813zM389.062 503.014c0 14.125-2.437 26.688-7.625 38.375-5.187 11.375-12.187 21.625-21.062 30-8.875 8.375-18.938 15-30.5 19.813-11.625 4.5-23.813 6.625-36.625 6.625-13.125 0-25.625-2.375-37.563-7.5-11.875-4.813-22-11.688-30.187-20.375-8.563-8.688-15.25-18.875-20.125-30.313-4.875-11.125-7.313-23.375-7.313-36.625 0-12.875 2.75-25.188 7.625-36.625 5.188-11.375 12.188-21.313 20.75-29.688 8.563-8.375 18.625-15.312 30.188-20.125 11.625-4.5 23.813-6.875 36.625-6.875 13.75 0 26.563 2.375 37.813 7.5 11.625 4.813 21.687 11.688 30.5 20.125 8.562 8.688 15.25 18.625 20.125 29.688 4.937 11.375 7.375 23.375 7.375 36zm212.688 2.375c0-14.125 2.75-26.688 7.625-38.375 5.188-11.375 12.188-21.625 21.063-30a96.984 96.984 0 0 1 30.5-19.5c11.625-4.813 23.812-6.875 36.625-6.875 13.437 0 25.937 2.375 37.562 7.5 11.875 5.125 22 11.688 30.5 20.375 8.25 9 14.938 18.875 19.813 30.313 4.875 11.375 7.312 23.375 7.312 36.625 0 12.875-2.438 25.187-7.625 36.625-5.188 11.375-11.875 21.312-20.75 29.687-8.563 8.688-18.625 15.313-30.188 20.125-11.625 4.813-23.812 7.188-36.625 7.188-13.75 0-26.25-2.688-37.812-7.5-11.625-5.125-21.688-12-30.188-20.375-8.875-8.375-15.562-18.313-20.437-29.688-4.938-11.5-7.375-23.5-7.375-36.125z"/>
</g>
</g>
</svg>
