<svg width="64" viewBox="0 0 64 64" fill="none" xmlns="http://www.w3.org/2000/svg" style="fill:none!important;">
<rect x="4.75" y="16.75" width="54.5" height="20.5" rx="10.25" stroke="#661FF4" stroke-width="1.5"/>
<path d="M15.4596 24.9219C15.4596 25.2263 15.2142 25.4705 14.9146 25.4705C14.6149 25.4705 14.3695 25.2263 14.3695 24.9219C14.3695 24.6176 14.6149 24.3734 14.9146 24.3734C15.2142 24.3734 15.4596 24.6176 15.4596 24.9219Z" stroke="#661FF4" stroke-width="0.75"/>
<rect x="10.625" y="21.625" width="10.75" height="10.75" rx="5.375" stroke="#661FF4" stroke-width="1.25"/>
<path d="M12 30L13.3999 28.4357C13.7598 28.0335 14.3738 27.9895 14.7874 28.3361L15.1912 28.6745C15.6631 29.07 16.3769 28.9492 16.6923 28.4205L17.5493 26.984C17.8598 26.4636 18.5582 26.3367 19.0319 26.7148L21 28.2857" stroke="#661FF4" stroke-width="1.25"/>
<rect x="26.75" y="23.75" width="26.5" height="6.5" rx="3.25" stroke="#661FF4" stroke-width="1.5"/>
<rect x="4.75" y="42.75" width="54.5" height="4.5" rx="2.25" stroke="#661FF4" stroke-width="1.5"/>
</svg>
