<svg width="64" viewBox="0 0 64 64" fill="none" xmlns="http://www.w3.org/2000/svg" style="fill: none!important;">
<g clip-path="url(#clip0_2113_13199)">
<rect x="34.75" y="19.75" width="24.5" height="24.5" rx="1.25" stroke="#661FF4" stroke-width="1.5"/>
<circle cx="44" cy="27" r="1.5" stroke="#661FF4"/>
<path d="M35 39L41.3373 33.5681C41.7169 33.2427 42.2786 33.2477 42.6524 33.5799L45.7665 36.348C46.1738 36.7101 46.796 36.6793 47.1657 36.2789L51.8217 31.2348C52.1963 30.829 52.829 30.8037 53.2348 31.1783L59 36.5" stroke="#661FF4" stroke-width="1.5"/>
<path d="M5 21.25V19.25C5 19.1119 5.11193 19 5.25 19H14.4722C14.6103 19 14.7222 19.1119 14.7222 19.25V21.25C14.7222 21.3881 14.6103 21.5 14.4722 21.5H13.5833C13.4453 21.5 13.3333 21.6119 13.3333 21.75V28.125C13.3333 28.2631 13.4453 28.375 13.5833 28.375H21.4167C21.5547 28.375 21.6667 28.2631 21.6667 28.125V21.75C21.6667 21.6119 21.5547 21.5 21.4167 21.5H20.5278C20.3897 21.5 20.2778 21.3881 20.2778 21.25V19.25C20.2778 19.1119 20.3897 19 20.5278 19H29.75C29.8881 19 30 19.1119 30 19.25V21.25C30 21.3881 29.8881 21.5 29.75 21.5H28.8611C28.723 21.5 28.6111 21.6119 28.6111 21.75V41.25C28.6111 41.3881 28.723 41.5 28.8611 41.5H29.75C29.8881 41.5 30 41.6119 30 41.75V43.75C30 43.8881 29.8881 44 29.75 44H20.5278C20.3897 44 20.2778 43.8881 20.2778 43.75V41.75C20.2778 41.6119 20.3897 41.5 20.5278 41.5H21.4167C21.5547 41.5 21.6667 41.3881 21.6667 41.25V35.5C21.6667 35.3619 21.5547 35.25 21.4167 35.25H13.5833C13.4453 35.25 13.3333 35.3619 13.3333 35.5V41.25C13.3333 41.3881 13.4453 41.5 13.5833 41.5H14.4722C14.6103 41.5 14.7222 41.6119 14.7222 41.75V43.75C14.7222 43.8881 14.6103 44 14.4722 44H5.25C5.11193 44 5 43.8881 5 43.75V41.75C5 41.6119 5.11193 41.5 5.25 41.5H6.13889C6.27696 41.5 6.38889 41.3881 6.38889 41.25V21.75C6.38889 21.6119 6.27696 21.5 6.13889 21.5H5.25C5.11193 21.5 5 21.3881 5 21.25Z" stroke="#661FF4" stroke-width="1.5"/>
<path d="M8.85436 13.1008C8.5702 13.4022 8.58414 13.8769 8.88551 14.161C9.18687 14.4452 9.66155 14.4313 9.94571 14.1299L8.85436 13.1008ZM54.6279 14.3574C55.042 14.3462 55.3686 14.0015 55.3574 13.5874L55.1751 6.83987C55.1639 6.42581 54.8192 6.09921 54.4051 6.1104C53.9911 6.12158 53.6645 6.46632 53.6756 6.88038L53.8377 12.8782L47.8399 13.0402C47.4258 13.0514 47.0992 13.3961 47.1104 13.8102C47.1216 14.2243 47.4663 14.5509 47.8804 14.5397L54.6279 14.3574ZM9.94571 14.1299C13.413 10.4527 19.7988 6.0271 27.6303 4.73808C35.4174 3.45636 44.7074 5.26136 54.0918 14.1521L55.1235 13.0632C45.409 3.85981 35.6508 1.89777 27.3867 3.25799C19.167 4.61091 12.4984 9.23625 8.85436 13.1008L9.94571 14.1299Z" fill="#661FF4"/>
<path d="M55.1456 50.1145C55.4298 49.8131 55.4159 49.3385 55.1145 49.0543C54.8131 48.7701 54.3385 48.7841 54.0543 49.0854L55.1456 50.1145ZM9.37208 48.8579C8.95802 48.8691 8.63143 49.2139 8.64261 49.6279L8.8249 56.3755C8.83609 56.7895 9.18082 57.1161 9.59488 57.1049C10.0089 57.0937 10.3355 56.749 10.3244 56.335L10.1623 50.3371L16.1601 50.1751C16.5742 50.1639 16.9008 49.8192 16.8896 49.4051C16.8784 48.9911 16.5337 48.6645 16.1196 48.6757L9.37208 48.8579ZM54.0543 49.0854C50.587 52.7626 44.2012 57.1882 36.3697 58.4773C28.5826 59.759 19.2926 57.954 9.90815 49.0632L8.87652 50.1521C18.591 59.3555 28.3492 61.3176 36.6133 59.9573C44.833 58.6044 51.5016 53.9791 55.1456 50.1145L54.0543 49.0854Z" fill="#661FF4"/>
</g>
<defs>
<clipPath id="clip0_2113_13199">
<rect width="64" height="64" fill="white"/>
</clipPath>
</defs>
</svg>
