<svg style="fill:none !important;" width="64" viewBox="0 0 64 65" fill="none" xmlns="http://www.w3.org/2000/svg">
<path d="M47.4731 28.8153C53.9842 28.8153 59.2625 23.5369 59.2625 17.0258C59.2625 10.5147 53.9842 5.23633 47.4731 5.23633C40.9619 5.23633 35.6836 10.5147 35.6836 17.0258" stroke="#661FF4" stroke-width="1.5" stroke-linecap="round"/>
<circle cx="47.4733" cy="17.026" r="0.934211" fill="#661FF4" stroke="#661FF4" stroke-width="1.5"/>
<path d="M47.4739 9.95755L46.296 11.7244L46.979 11.3829L47.4739 9.95755ZM47.4739 9.95755L48.6516 11.7242L47.9692 11.3829C47.6575 11.2271 47.2906 11.2271 46.979 11.3829L47.4739 9.95755Z" stroke="#661FF4" stroke-width="1.5"/>
<path d="M47.4734 24.0952L48.6513 22.3284L47.9683 22.6698L47.4734 24.0952ZM47.4734 24.0952L46.2956 22.3286L46.9781 22.6698C47.2897 22.8256 47.6566 22.8257 47.9683 22.6698L47.4734 24.0952Z" stroke="#661FF4" stroke-width="1.5"/>
<path d="M7.17383 22.002H8.27383H40.1738C40.7261 22.002 41.1738 22.4497 41.1738 23.002V29.002C41.1738 29.5542 40.7261 30.002 40.1738 30.002H28.8238C28.2715 30.002 27.8238 30.4497 27.8238 31.002V59.002C27.8238 59.5542 27.3761 60.002 26.8238 60.002H20.5238C19.9715 60.002 19.5238 59.5542 19.5238 59.002V31.002C19.5238 30.4497 19.0761 30.002 18.5238 30.002H7.17383C6.62154 30.002 6.17383 29.5542 6.17383 29.002V23.002C6.17383 22.4497 6.62154 22.002 7.17383 22.002Z" stroke="#661FF4" stroke-width="1.5" stroke-linecap="round" stroke-linejoin="round"/>
</svg>
