<svg width="64" viewBox="0 0 64 64" fill="none" style="fill:none!important;" xmlns="http://www.w3.org/2000/svg">
<path d="M44 24.6666C44 26.8758 42.2092 28.6666 40 28.6666C37.7908 28.6666 36 26.8758 36 24.6666C36 22.4575 37.7908 20.6666 40 20.6666C42.2092 20.6666 44 22.4575 44 24.6666Z" stroke="#661FF4" stroke-width="1.5"/>
<path d="M28 32C28 34.2092 26.2091 36 24 36C21.7909 36 20 34.2092 20 32C20 29.7908 21.7909 28 24 28C26.2091 28 28 29.7908 28 32Z" stroke="#661FF4" stroke-width="1.5"/>
<path d="M44 39.3334C44 41.5426 42.2092 43.3334 40 43.3334C37.7908 43.3334 36 41.5426 36 39.3334C36 37.1242 37.7908 35.3334 40 35.3334C42.2092 35.3334 44 37.1242 44 39.3334Z" stroke="#661FF4" stroke-width="1.5"/>
<path d="M27.6382 30.3327L36.3048 26.3334M27.6382 33.6667L36.3048 37.666" stroke="#661FF4" stroke-width="1.5"/>
<path d="M18.1044 9.47711C17.1163 8.38567 15.6882 7.7 14.1 7.7C11.1177 7.7 8.7 10.1177 8.7 13.1C8.7 14.6882 9.38567 16.1163 10.4771 17.1044C11.4352 17.9717 12.7059 18.5 14.1 18.5C17.0823 18.5 19.5 16.0823 19.5 13.1C19.5 11.7059 18.9717 10.4352 18.1044 9.47711ZM18.1044 9.47711C22.3739 6.64781 27.4945 5 33 5C34.8492 5 36.6553 5.18592 38.4 5.54011M55.5531 17.15C58.3638 21.4103 60 26.5141 60 32C60 33.8492 59.814 35.6553 59.46 37.4M47.8956 54.5229C43.6261 57.3522 38.5056 59 33 59C31.1508 59 29.3447 58.814 27.6 58.46M47.8956 54.5229C48.8836 55.6145 50.3119 56.3 51.9 56.3C54.8824 56.3 57.3 53.8824 57.3 50.9C57.3 49.3119 56.6145 47.8836 55.5229 46.8956C54.5649 46.0284 53.294 45.5 51.9 45.5C48.9176 45.5 46.5 47.9176 46.5 50.9C46.5 52.294 47.0284 53.5649 47.8956 54.5229ZM10.4771 46.8956C7.64781 42.6261 6 37.5056 6 32C6 30.1508 6.18592 28.3447 6.54011 26.6M10.4771 46.8956C9.38567 47.8836 8.7 49.3119 8.7 50.9C8.7 53.8824 11.1177 56.3 14.1 56.3C15.6882 56.3 17.1163 55.6145 18.1044 54.5229C18.9717 53.5649 19.5 52.294 19.5 50.9C19.5 47.9176 17.0823 45.5 14.1 45.5C12.7059 45.5 11.4352 46.0284 10.4771 46.8956ZM57.3 13.1C57.3 16.0823 54.8824 18.5 51.9 18.5C48.9176 18.5 46.5 16.0823 46.5 13.1C46.5 11.7059 47.0284 10.4352 47.8956 9.47711C48.8836 8.38567 50.3119 7.7 51.9 7.7C54.8824 7.7 57.3 10.1177 57.3 13.1Z" stroke="#661FF4" stroke-width="1.5" stroke-linecap="round" stroke-linejoin="round"/>
</svg>
