<svg width="24" height="24" viewBox="0 0 24 24" fill="none" xmlns="http://www.w3.org/2000/svg">
<path d="M19.3111 8.96068L18.5625 7.34111C17.4096 4.84694 16.8331 3.59985 15.8869 3.59985C14.9407 3.59985 14.3642 4.84694 13.2114 7.34111L12.4627 8.96068C11.7372 10.5303 11.3744 11.3152 11.3744 12.1499C11.3744 12.9845 11.7372 13.7694 12.4627 15.339L13.2114 16.9586C14.3642 19.4528 14.9407 20.6999 15.8869 20.6999C16.8331 20.6999 17.4096 19.4528 18.5625 16.9586L19.3111 15.339C20.0366 13.7694 20.3994 12.9845 20.3994 12.1499C20.3994 11.3152 20.0366 10.5303 19.3111 8.96068Z" stroke="#661FF4" stroke-linecap="round" stroke-linejoin="round" fill="none"/>
<path d="M12.6992 19.7661C12.5198 19.8886 12.3327 19.9499 12.127 19.9499C11.2406 19.9499 10.7004 18.8122 9.62027 16.5367L8.91888 15.0593C8.23917 13.6273 7.89922 12.9113 7.89922 12.1499C7.89922 11.3884 8.23917 10.6724 8.91888 9.24044L9.62027 7.76293C10.7004 5.48754 11.2406 4.34985 12.127 4.34985C12.3327 4.34985 12.5198 4.4111 12.6992 4.53359" stroke="#661FF4" stroke-linecap="round" stroke-linejoin="round" fill="none"/>
<path d="M8.5 18.2927C8.25755 18.5974 8.0159 18.7498 7.72979 18.7498C7.01056 18.7498 6.57246 17.7872 5.69619 15.8618L5.1272 14.6116C4.57571 13.4 4.3 12.7941 4.3 12.1498C4.3 11.5055 4.57571 10.8996 5.1272 9.68799L5.69619 8.4378C6.57246 6.51247 7.01056 5.5498 7.72979 5.5498C8.0159 5.5498 8.25755 5.70218 8.5 6.00692" stroke="#661FF4" stroke-linecap="round" stroke-linejoin="round" fill="none"/>
<path d="M13.8292 10.9276L14.9439 8.47544C15.4269 7.41272 16.2694 7.23599 16.6903 8.10909L18.073 10.9777C18.4155 11.6883 18.3476 12.8441 17.9157 13.6528L16.6295 16.0615C16.1148 17.0253 15.3091 17.0931 14.9283 16.2047L13.7171 13.3796C13.4312 12.7127 13.4774 11.7015 13.8292 10.9276Z" stroke="#661FF4" stroke-width="0.75" fill="none"/>
<path d="M15 16.5L15.0003 14.8477C15.0005 14.1723 15.3184 13.5301 15.7064 13.4218V13.4218C16.1269 13.3043 16.457 12.5667 16.4076 11.855L16.3696 11.3058C16.3246 10.6572 16.5956 9.97245 16.976 9.77375L17.5001 9.49999" stroke="#661FF4" stroke-width="0.75" fill="none"/>
<circle cx="0.581818" cy="0.581818" r="0.381818" transform="matrix(0.6 -0.8 0.353401 0.935472 14.4004 11.7307)" stroke="#661FF4" stroke-width="0.4" fill="none"/>
</svg>
