<?xml version="1.0" encoding="UTF-8"?>
<svg id="a" xmlns="http://www.w3.org/2000/svg" viewBox="0 0 41.2 41.2">
    <path d="M38.2,3.1C35,0,30.2,0,20.6,0S6.2,0,3.1,3.1,0,11,0,20.6s0,14.4,3.1,17.5,7.9,3.1,17.5,3.1,14.4,0,17.5-3.1,3.1-7.9,3.1-17.5,0-14.4-3.1-17.5c0,0,0,0,.1,0Zm-.8,34.2c-2.8,2.8-7.4,2.8-16.7,2.8s-13.9,0-16.7-2.8c-2.8-2.8-2.8-7.4-2.8-16.7S1.2,6.7,3.9,3.9C6.6,1.1,11.4,1.2,20.6,1.2s13.9,0,16.7,2.8c2.8,2.8,2.8,7.4,2.8,16.7s0,13.9-2.8,16.7h0Zm-2.5-28.1c.3,0,.6-.3,.6-.6s-.3-.6-.6-.6h-1.7c-4,0-7.6,2.2-9.6,5.7l-7,12.9c-1.7,3.2-5,5.1-8.5,5.1h-1.7c-.3,0-.6,.3-.6,.6s.3,.6,.6,.6h1.7c4,0,7.6-2.2,9.6-5.7l7-12.9c1.7-3.2,5-5.1,8.5-5.1,0,0,1.7,0,1.7,0Zm-4,5.3c-.5,.5-.8,1.2-.8,2s.3,1.4,.8,2,1.2,.8,2,.8,1.4-.3,2-.8c.5-.5,.8-1.2,.8-2s-.3-1.4-.8-2c-1-1-2.9-1-3.9,0,0,0-.1,0-.1,0ZM8.4,26.2c.7,0,1.4-.3,2-.8,.5-.5,.8-1.2,.8-2s-.3-1.4-.8-2c-1.1-1-2.9-1-3.9,0s-.8,1.2-.8,2,.3,1.4,.8,2c.5,.5,1.2,.8,2,.8h-.1Z"
          style="fill:#661ff4;"/>
</svg>